<svg width="218" height="190" viewBox="0 0 218 190" fill="none" xmlns="http://www.w3.org/2000/svg">
<g clip-path="url(#clip0_569_3462)">
<path fill-rule="evenodd" clip-rule="evenodd" d="M109.199 164.306C96.8287 164.306 84.7363 160.637 74.4509 153.765C64.1656 146.893 56.1491 137.124 51.4153 125.696C46.6815 114.267 45.4428 101.692 47.8561 89.5594C50.2694 77.427 56.2262 66.2827 64.9732 57.5357C73.7202 48.7887 84.8645 42.8319 96.9969 40.4186C109.129 38.0053 121.705 39.2439 133.134 43.9777C144.562 48.7115 154.33 56.728 161.203 67.0134C168.075 77.2988 171.743 89.3911 171.743 101.761C171.743 118.349 165.154 134.257 153.424 145.987C141.695 157.716 125.787 164.306 109.199 164.306ZM73.7861 115.865C72.4411 114.505 71.6868 112.67 71.6868 110.757C71.6868 108.845 72.4411 107.009 73.7861 105.649L77.468 101.988C78.0941 101.357 78.8407 100.857 79.6636 100.519C80.4865 100.182 81.369 100.013 82.2584 100.023C83.1479 100.033 84.0262 100.221 84.8414 100.577C85.6566 100.933 86.392 101.449 87.0039 102.095L93.5085 108.843C93.8186 109.171 94.1922 109.431 94.6064 109.609C95.0205 109.787 95.4667 109.879 95.9175 109.879C96.3683 109.879 96.8145 109.787 97.2287 109.609C97.6428 109.431 98.0163 109.171 98.3264 108.843L131.475 74.6732C132.091 74.0231 132.833 73.5043 133.655 73.148C134.477 72.7917 135.362 72.6054 136.258 72.6001C137.154 72.5949 138.042 72.7708 138.868 73.1174C139.694 73.464 140.441 73.9741 141.065 74.617L144.641 78.232C145.953 79.5862 146.686 81.3979 146.686 83.2835C146.686 85.1692 145.953 86.9808 144.641 88.335L100.632 133.056C100.018 133.692 99.2833 134.199 98.4707 134.547C97.6582 134.895 96.7842 135.077 95.9003 135.083C95.0164 135.089 94.1403 134.918 93.3232 134.581C92.5061 134.243 91.7646 133.746 91.1422 133.119L73.7861 115.865Z" fill="#246BFD"/>
<path d="M158.896 55.4454C161.883 55.4454 164.305 53.0236 164.305 50.0362C164.305 47.0488 161.883 44.627 158.896 44.627C155.908 44.627 153.486 47.0488 153.486 50.0362C153.486 53.0236 155.908 55.4454 158.896 55.4454Z" fill="#246BFD"/>
</g>
<path d="M84.5198 190C86.7604 190 88.5768 188.183 88.5768 185.943C88.5768 183.702 86.7604 181.886 84.5198 181.886C82.2792 181.886 80.4629 183.702 80.4629 185.943C80.4629 188.183 82.2792 190 84.5198 190Z" fill="#246BFD"/>
<path d="M122.383 186.62C124.997 186.62 127.117 184.5 127.117 181.886C127.117 179.272 124.997 177.153 122.383 177.153C119.769 177.153 117.65 179.272 117.65 181.886C117.65 184.5 119.769 186.62 122.383 186.62Z" fill="#246BFD"/>
<path d="M164.307 168.363C166.174 168.363 167.687 166.849 167.687 164.982C167.687 163.115 166.174 161.602 164.307 161.602C162.439 161.602 160.926 163.115 160.926 164.982C160.926 166.849 162.439 168.363 164.307 168.363Z" fill="#246BFD"/>
<path d="M59.501 172.42C62.4885 172.42 64.9103 169.998 64.9103 167.011C64.9103 164.023 62.4885 161.602 59.501 161.602C56.5136 161.602 54.0918 164.023 54.0918 167.011C54.0918 169.998 56.5136 172.42 59.501 172.42Z" fill="#246BFD"/>
<path d="M15.8895 136.584C18.6903 136.584 20.9607 134.313 20.9607 131.513C20.9607 128.712 18.6903 126.441 15.8895 126.441C13.0888 126.441 10.8184 128.712 10.8184 131.513C10.8184 134.313 13.0888 136.584 15.8895 136.584Z" fill="#246BFD"/>
<path d="M181.209 145.374C183.45 145.374 185.266 143.557 185.266 141.317C185.266 139.076 183.45 137.26 181.209 137.26C178.969 137.26 177.152 139.076 177.152 141.317C177.152 143.557 178.969 145.374 181.209 145.374Z" fill="#246BFD"/>
<path d="M211.638 137.26C214.625 137.26 217.047 134.838 217.047 131.851C217.047 128.863 214.625 126.441 211.638 126.441C208.65 126.441 206.229 128.863 206.229 131.851C206.229 134.838 208.65 137.26 211.638 137.26Z" fill="#246BFD"/>
<path d="M183.914 109.537C185.781 109.537 187.295 108.023 187.295 106.156C187.295 104.289 185.781 102.775 183.914 102.775C182.047 102.775 180.533 104.289 180.533 106.156C180.533 108.023 182.047 109.537 183.914 109.537Z" fill="#246BFD"/>
<path d="M180.534 94.6613C183.522 94.6613 185.943 92.2395 185.943 89.252C185.943 86.2646 183.522 83.8428 180.534 83.8428C177.547 83.8428 175.125 86.2646 175.125 89.252C175.125 92.2395 177.547 94.6613 180.534 94.6613Z" fill="#246BFD"/>
<path d="M198.791 70.3202C200.658 70.3202 202.172 68.8065 202.172 66.9394C202.172 65.0722 200.658 63.5586 198.791 63.5586C196.924 63.5586 195.41 65.0722 195.41 66.9394C195.41 68.8065 196.924 70.3202 198.791 70.3202Z" fill="#246BFD"/>
<path d="M191.353 55.4454C194.34 55.4454 196.762 53.0236 196.762 50.0362C196.762 47.0488 194.34 44.627 191.353 44.627C188.365 44.627 185.943 47.0488 185.943 50.0362C185.943 53.0236 188.365 55.4454 191.353 55.4454Z" fill="#246BFD"/>
<path d="M12.1702 167.01C14.4108 167.01 16.2272 165.194 16.2272 162.953C16.2272 160.713 14.4108 158.896 12.1702 158.896C9.92963 158.896 8.11328 160.713 8.11328 162.953C8.11328 165.194 9.92963 167.01 12.1702 167.01Z" fill="#246BFD"/>
<path d="M165.659 37.8646C168.273 37.8646 170.392 35.7455 170.392 33.1315C170.392 30.5175 168.273 28.3984 165.659 28.3984C163.045 28.3984 160.926 30.5175 160.926 33.1315C160.926 35.7455 163.045 37.8646 165.659 37.8646Z" fill="#246BFD"/>
<path d="M171.405 25.6931C174.206 25.6931 176.476 23.4227 176.476 20.622C176.476 17.8212 174.206 15.5508 171.405 15.5508C168.604 15.5508 166.334 17.8212 166.334 20.622C166.334 23.4227 168.604 25.6931 171.405 25.6931Z" fill="#246BFD"/>
<path d="M122.385 6.76156C124.252 6.76156 125.765 5.24793 125.765 3.38078C125.765 1.51363 124.252 0 122.385 0C120.518 0 119.004 1.51363 119.004 3.38078C119.004 5.24793 120.518 6.76156 122.385 6.76156Z" fill="#246BFD"/>
<path d="M58.8261 27.7225C60.6932 27.7225 62.2069 26.2089 62.2069 24.3417C62.2069 22.4746 60.6932 20.9609 58.8261 20.9609C56.9589 20.9609 55.4453 22.4746 55.4453 24.3417C55.4453 26.2089 56.9589 27.7225 58.8261 27.7225Z" fill="#246BFD"/>
<path d="M80.4616 37.8646C83.0756 37.8646 85.1947 35.7455 85.1947 33.1315C85.1947 30.5175 83.0756 28.3984 80.4616 28.3984C77.8476 28.3984 75.7285 30.5175 75.7285 33.1315C75.7285 35.7455 77.8476 37.8646 80.4616 37.8646Z" fill="#246BFD"/>
<path d="M39.8929 36.5123C42.1335 36.5123 43.9498 34.696 43.9498 32.4554C43.9498 30.2148 42.1335 28.3984 39.8929 28.3984C37.6523 28.3984 35.8359 30.2148 35.8359 32.4554C35.8359 34.696 37.6523 36.5123 39.8929 36.5123Z" fill="#246BFD"/>
<path d="M24.3409 10.8185C27.3283 10.8185 29.7501 8.39669 29.7501 5.40925C29.7501 2.4218 27.3283 0 24.3409 0C21.3534 0 18.9316 2.4218 18.9316 5.40925C18.9316 8.39669 21.3534 10.8185 24.3409 10.8185Z" fill="#246BFD"/>
<path d="M5.07117 68.2908C7.8719 68.2908 10.1423 66.0203 10.1423 63.2196C10.1423 60.4189 7.8719 58.1484 5.07117 58.1484C2.27044 58.1484 0 60.4189 0 63.2196C0 66.0203 2.27044 68.2908 5.07117 68.2908Z" fill="#246BFD"/>
<path d="M28.3984 85.1952C30.2655 85.1952 31.7791 83.6815 31.7791 81.8144C31.7791 79.9472 30.2655 78.4336 28.3984 78.4336C26.5312 78.4336 25.0176 79.9472 25.0176 81.8144C25.0176 83.6815 26.5312 85.1952 28.3984 85.1952Z" fill="#246BFD"/>
<path d="M35.1612 119.003C38.1486 119.003 40.5704 116.581 40.5704 113.594C40.5704 110.606 38.1486 108.185 35.1612 108.185C32.1738 108.185 29.752 110.606 29.752 113.594C29.752 116.581 32.1738 119.003 35.1612 119.003Z" fill="#246BFD"/>
<path d="M111.566 22.3123C113.433 22.3123 114.947 20.7987 114.947 18.9316C114.947 17.0644 113.433 15.5508 111.566 15.5508C109.699 15.5508 108.186 17.0644 108.186 18.9316C108.186 20.7987 109.699 22.3123 111.566 22.3123Z" fill="#246BFD"/>
<path d="M123.061 36.5123C125.301 36.5123 127.118 34.696 127.118 32.4554C127.118 30.2148 125.301 28.3984 123.061 28.3984C120.82 28.3984 119.004 30.2148 119.004 32.4554C119.004 34.696 120.82 36.5123 123.061 36.5123Z" fill="#246BFD"/>
<defs>
<clipPath id="clip0_569_3462">
<rect width="125.089" height="125.089" fill="white" transform="translate(46.6543 39.2168)"/>
</clipPath>
</defs>
</svg>
