<svg width="222" height="130" viewBox="0 0 222 130" fill="none" xmlns="http://www.w3.org/2000/svg">
<path d="M201.96 104.484C201.083 97.6198 207.803 92.1974 211.405 86.1183C214.855 80.2945 215.423 72.9479 212.183 67.0245C208.943 61.1011 201.705 56.9951 194.481 57.6325C184.883 58.4794 177.139 66.8282 167.511 66.3333C160.623 65.9793 154.964 61.0321 151.623 55.5261C148.281 50.0201 146.619 43.802 143.679 38.1084C140.739 32.4149 135.999 26.9475 129.318 25.3748C119.603 23.0875 110.271 29.6443 102.996 35.9468C95.7211 42.2494 87.1235 49.2621 77.1742 48.0805C68.2538 47.0213 62.0245 39.744 54.2798 35.5703C45.1718 30.662 33.0905 30.3103 24.0775 35.3626C15.0646 40.415 9.90949 50.9371 12.5887 60.2718C14.3328 66.3479 18.9074 71.3591 22.1592 76.8958C25.4111 82.4321 27.2346 89.5488 23.4252 94.7811C19.3086 100.435 10.501 101.46 5.2469 106.266C-0.606395 111.62 1.11914 122.617 7.42335 127.527L210.364 128.275C213.324 124.783 211.515 119.647 208.816 115.983C206.118 112.319 202.52 108.868 201.96 104.484Z" fill="#F0F8FF"/>
<path d="M197.969 105.492C197.129 98.9192 203.564 93.7266 207.013 87.9051C210.317 82.3285 210.861 75.293 207.759 69.6208C204.656 63.9486 197.724 60.0167 190.807 60.627C181.616 61.4379 174.2 69.4329 164.98 68.9588C158.384 68.6197 152.965 63.8822 149.765 58.6099C146.565 53.3373 144.973 47.3827 142.158 41.9307C139.343 36.4788 134.804 31.243 128.407 29.7369C119.103 27.5466 110.167 33.8255 103.2 39.8608C96.2336 45.8961 88.0004 52.6114 78.4729 51.4801C69.9307 50.4659 63.9653 43.4967 56.5489 39.5001C47.8268 34.7997 36.2579 34.4629 27.627 39.3011C18.9958 44.1391 14.0594 54.2154 16.6253 63.1543C18.2954 68.9729 22.6762 73.7717 25.79 79.0735C28.9039 84.3753 30.6502 91.1902 27.0025 96.2005C23.0605 101.615 14.6263 102.597 9.59476 107.199C3.98966 112.326 5.64218 122.857 11.679 127.559L206.017 128.275C208.851 124.931 207.119 120.013 204.535 116.505C201.951 112.995 198.505 109.69 197.969 105.492Z" stroke="white" stroke-width="2" stroke-miterlimit="10"/>
<path d="M197.665 60.2991C196.786 59.9805 195.779 60.2127 195.11 60.8229L194.405 61.4658L193.7 60.8229C193.031 60.2127 192.024 59.9802 191.145 60.2991C189.584 60.8653 189.179 62.6947 190.357 63.7691L193.82 66.928C194.143 67.2227 194.667 67.2227 194.99 66.928L198.453 63.7691C199.631 62.6947 199.226 60.8653 197.665 60.2991Z" fill="#9AD1F0"/>
<path d="M165.821 107.154C166.133 105.473 165.577 103.745 164.72 102.231C163.937 100.849 162.891 99.5794 161.572 98.5935C160.253 97.6079 158.895 97.121 157.205 96.918C158.436 97.9868 159.087 99.5379 159.186 101.086C159.285 102.634 158.868 104.181 158.213 105.612C157.707 106.718 157.06 107.767 156.55 108.871C156.04 109.976 155.665 111.162 155.745 112.357C155.825 113.554 156.418 114.765 157.513 115.428L162.329 116.691C161.764 115.053 162.51 113.285 163.437 111.79C164.364 110.295 165.507 108.847 165.821 107.154Z" fill="#90C3E0"/>
<path d="M159.082 115.691C158.424 114.642 158.381 113.346 158.686 112.171C158.991 110.996 159.614 109.912 160.239 108.847C160.864 107.782 161.502 106.709 161.841 105.541C162.562 103.058 161.779 100.256 159.842 98.3916" stroke="#BAE1FF" stroke-width="0.5359" stroke-miterlimit="10" stroke-linecap="round" stroke-linejoin="round"/>
<path d="M158.661 113.02C158.638 111.423 158.489 109.772 157.661 108.364C156.362 106.157 153.613 104.907 152.293 102.71C151.369 101.172 151.221 99.3275 151.975 97.7139C149.656 99.1493 147.738 101.215 146.935 103.664C146.133 106.113 146.559 108.947 148.353 110.911C149.223 111.864 150.36 112.577 151.471 113.293C152.581 114.009 153.698 114.756 154.506 115.755C155.313 116.753 155.778 118.055 155.423 119.252L156.851 119.403C158.439 117.685 158.693 115.267 158.661 113.02Z" fill="#9AD1F0"/>
<path d="M156.536 116.948C156.708 115.415 156.368 113.838 155.572 112.478C154.499 110.645 152.669 109.268 151.511 107.479C150.105 105.304 149.805 102.561 150.713 100.176" stroke="#BAE1FF" stroke-width="0.5359" stroke-miterlimit="10" stroke-linecap="round" stroke-linejoin="round"/>
<path d="M164.634 118.382C163.66 117.67 162.846 116.757 162.383 115.7C161.92 114.643 161.824 113.438 162.221 112.358C162.646 111.203 163.587 110.27 164.575 109.45C165.564 108.63 166.635 107.876 167.446 106.907C168.782 105.31 169.507 103.088 169.036 101.125C169.765 102.223 170.587 103.273 171.204 104.427C171.822 105.581 172.231 106.869 172.061 108.144C171.926 109.155 171.428 110.109 170.749 110.919C170.07 111.729 169.214 112.403 168.306 112.997C167.664 113.417 166.99 113.803 166.405 114.288C165.82 114.772 165.319 115.374 165.133 116.075C164.948 116.776 165.126 117.584 165.714 118.065" fill="#9AD1F0"/>
<path d="M164.275 116.204C163.551 115.512 163.523 114.389 163.957 113.519C164.391 112.649 165.2 111.986 166.028 111.4C166.856 110.815 167.736 110.27 168.402 109.532C169.116 108.742 169.548 107.764 169.781 106.762C170.015 105.761 170.057 104.731 170.058 103.707" stroke="#BAE1FF" stroke-width="0.5359" stroke-miterlimit="10" stroke-linecap="round" stroke-linejoin="round"/>
<path d="M164.022 127.12H155.235L151.539 114.533H167.718L164.022 127.12Z" fill="#9AD0F4"/>
<path d="M167.676 115.64H151.585C150.97 115.64 150.473 115.186 150.473 114.626V114.617C150.473 114.056 150.971 113.603 151.585 113.603H167.676C168.29 113.603 168.788 114.056 168.788 114.617V114.626C168.788 115.186 168.29 115.64 167.676 115.64Z" fill="#BAE1FF"/>
<path d="M66.4978 106.317C66.8232 104.566 66.2439 102.766 65.3504 101.187C64.535 99.7474 63.4452 98.4248 62.071 97.398C60.6967 96.3709 59.2815 95.8638 57.5201 95.6523C58.8037 96.7662 59.4817 98.3821 59.5845 99.9952C59.6876 101.608 59.2534 103.22 58.5709 104.711C58.0438 105.863 57.3696 106.956 56.8383 108.106C56.3067 109.257 55.916 110.492 55.9996 111.739C56.0832 112.985 56.7009 114.247 57.841 114.938L62.8588 116.254C62.2708 114.547 63.0477 112.705 64.0133 111.148C64.9795 109.59 66.1705 108.081 66.4978 106.317Z" fill="#90C3E0"/>
<path d="M59.4768 115.211C58.7921 114.118 58.7473 112.769 59.0647 111.544C59.382 110.319 60.0312 109.19 60.6823 108.081C61.3334 106.971 61.9985 105.853 62.3518 104.636C63.1034 102.049 62.2871 99.1294 60.2685 97.1865" stroke="#BAE1FF" stroke-width="0.5584" stroke-miterlimit="10" stroke-linecap="round" stroke-linejoin="round"/>
<path d="M59.0325 112.429C59.0085 110.765 58.8535 109.044 57.9904 107.578C56.6373 105.278 53.7729 103.975 52.3978 101.686C51.4351 100.084 51.2807 98.1625 52.0657 96.4814C49.6497 97.9771 47.6509 100.129 46.8148 102.681C45.9786 105.233 46.4231 108.186 48.2918 110.232C49.1987 111.225 50.383 111.968 51.5401 112.714C52.6972 113.46 53.861 114.239 54.7023 115.278C55.5436 116.318 56.0278 117.675 55.6576 118.922L57.1462 119.079C58.8009 117.29 59.0661 114.77 59.0325 112.429Z" fill="#9AD1F0"/>
<path d="M56.833 116.522C57.0123 114.925 56.6578 113.281 55.8286 111.864C54.7109 109.955 52.8032 108.52 51.5974 106.656C50.1319 104.39 49.8197 101.532 50.7657 99.0469" stroke="#BAE1FF" stroke-width="0.5584" stroke-miterlimit="10" stroke-linecap="round" stroke-linejoin="round"/>
<path d="M65.2533 118.014C64.2391 117.272 63.391 116.321 62.9084 115.22C62.4258 114.119 62.3262 112.863 62.7393 111.738C63.1819 110.535 64.1622 109.562 65.1922 108.708C66.2221 107.854 67.3382 107.068 68.1827 106.059C69.5755 104.394 70.3306 102.08 69.8394 100.034C70.5987 101.178 71.4557 102.273 72.0991 103.475C72.7425 104.677 73.1687 106.019 72.9913 107.347C72.8504 108.401 72.3326 109.395 71.6251 110.239C70.9177 111.082 70.0254 111.785 69.0794 112.404C68.4104 112.841 67.7084 113.243 67.099 113.748C66.4895 114.253 65.9675 114.88 65.7741 115.61C65.5803 116.341 65.7664 117.183 66.3793 117.684" fill="#9AD1F0"/>
<path d="M64.886 115.747C64.1318 115.026 64.1026 113.856 64.5548 112.95C65.007 112.043 65.8496 111.353 66.7124 110.742C67.5748 110.132 68.492 109.564 69.186 108.795C69.9297 107.972 70.3803 106.953 70.6233 105.91C70.8664 104.866 70.9106 103.793 70.9116 102.727" stroke="#BAE1FF" stroke-width="0.5584" stroke-miterlimit="10" stroke-linecap="round" stroke-linejoin="round"/>
<path d="M64.6266 127.121H55.4725L51.6211 114.007H68.478L64.6266 127.121Z" fill="#9AD0F4"/>
<path d="M68.4747 115.159H51.6158C51.0016 115.159 50.5039 114.704 50.5039 114.144V114.05C50.5039 113.49 51.0016 113.036 51.6158 113.036H68.4747C69.0889 113.036 69.5866 113.49 69.5866 114.05V114.144C69.5866 114.704 69.0889 115.159 68.4747 115.159Z" fill="#BAE1FF"/>
<path d="M115.768 48.1748H47.75V85.0444H115.768V48.1748Z" fill="#BAE1FF" stroke="#90C3E0" stroke-width="5" stroke-miterlimit="10"/>
<path d="M157.218 53.8184H145.003C144.398 53.8184 143.906 54.2665 143.906 54.8191V58.9928C143.906 59.5455 144.398 59.9936 145.003 59.9936H146.376L146.039 61.9674C145.974 62.3448 146.482 62.5723 146.77 62.2945L149.156 59.9936H157.218C157.824 59.9936 158.315 59.5455 158.315 58.9928V54.8191C158.315 54.2665 157.824 53.8184 157.218 53.8184Z" fill="#9AD1F0"/>
<path d="M157.148 55.4558H145.508C145.301 55.4558 145.133 55.3024 145.133 55.1132C145.133 54.9239 145.301 54.7705 145.508 54.7705H157.148C157.355 54.7705 157.523 54.9239 157.523 55.1132C157.523 55.3024 157.355 55.4558 157.148 55.4558Z" fill="white"/>
<path d="M152.641 56.9929H145.508C145.301 56.9929 145.133 56.8395 145.133 56.6503C145.133 56.461 145.301 56.3076 145.508 56.3076H152.641C152.849 56.3076 153.017 56.461 153.017 56.6503C153.017 56.8395 152.849 56.9929 152.641 56.9929Z" fill="white"/>
<path d="M149.185 58.7068H145.508C145.301 58.7068 145.133 58.5534 145.133 58.3641C145.133 58.1748 145.301 58.0215 145.508 58.0215H149.185C149.393 58.0215 149.561 58.1748 149.561 58.3641C149.561 58.5531 149.393 58.7068 149.185 58.7068Z" fill="white"/>
<path d="M9.11672 63.835H21.3312C21.9372 63.835 22.4284 64.2831 22.4284 64.8357V69.0094C22.4284 69.5621 21.9372 70.0102 21.3312 70.0102H19.9589L20.2962 71.984C20.3605 72.3614 19.8526 72.5889 19.5647 72.3111L17.1791 70.0102H9.11672C8.5108 70.0102 8.01953 69.5621 8.01953 69.0094V64.8357C8.01921 64.2831 8.51048 63.835 9.11672 63.835Z" fill="#9AD1F0"/>
<path d="M9.18425 65.4744H20.8236C21.0311 65.4744 21.1992 65.321 21.1992 65.1317C21.1992 64.9424 21.0311 64.7891 20.8236 64.7891H9.18425C8.97673 64.7891 8.80859 64.9424 8.80859 65.1317C8.80859 65.3207 8.97673 65.4744 9.18425 65.4744Z" fill="white"/>
<path d="M13.696 67.0095H20.8287C21.0362 67.0095 21.2043 66.8562 21.2043 66.6669C21.2043 66.4776 21.0362 66.3242 20.8287 66.3242H13.696C13.4884 66.3242 13.3203 66.4776 13.3203 66.6669C13.3203 66.8562 13.4884 67.0095 13.696 67.0095Z" fill="white"/>
<path d="M17.1569 68.7244H20.8334C21.041 68.7244 21.2091 68.571 21.2091 68.3817C21.2091 68.1924 21.041 68.0391 20.8334 68.0391H17.1569C16.9494 68.0391 16.7812 68.1924 16.7812 68.3817C16.7812 68.571 16.9494 68.7244 17.1569 68.7244Z" fill="white"/>
<path d="M193.273 24.5944L193.594 0.0126953" stroke="#90C3E0" stroke-width="2" stroke-miterlimit="10"/>
<path d="M193.273 35.1872C191.998 35.1872 190.965 34.2449 190.965 33.0826V32.2705H195.58V33.0826C195.58 34.2449 194.547 35.1872 193.273 35.1872Z" fill="#90C3E0"/>
<path d="M194.238 23.8887H192.316V25.8473H194.238V23.8887Z" fill="#BAE1FF"/>
<path d="M194.986 25.4785H191.566V27.4371H194.986V25.4785Z" fill="#90C3E0"/>
<path d="M197.433 30.0009V29.2344C197.433 28.1627 196.481 27.2939 195.306 27.2939H191.227C190.052 27.2939 189.1 28.1627 189.1 29.2344V30.0009L185.528 30.4648C183.846 30.7283 182.617 32.0586 182.617 33.6152H203.916C203.916 32.0586 202.687 30.7283 201.005 30.4648L197.433 30.0009Z" fill="#BAE1FF"/>
<path d="M110.656 24.5944L110.977 0.0126953" stroke="#90C3E0" stroke-width="2" stroke-miterlimit="10"/>
<path d="M110.648 35.1872C109.373 35.1872 108.34 34.2449 108.34 33.0826V32.2705H112.955V33.0826C112.955 34.2449 111.922 35.1872 110.648 35.1872Z" fill="#90C3E0"/>
<path d="M111.609 23.8887H109.688V25.8473H111.609V23.8887Z" fill="#BAE1FF"/>
<path d="M112.357 25.4785H108.938V27.4371H112.357V25.4785Z" fill="#90C3E0"/>
<path d="M114.816 30.0009V29.2344C114.816 28.1627 113.864 27.2939 112.689 27.2939H108.61C107.435 27.2939 106.483 28.1627 106.483 29.2344V30.0009L102.911 30.4648C101.229 30.7283 100 32.0586 100 33.6152H121.299C121.299 32.0586 120.069 30.7283 118.388 30.4648L114.816 30.0009Z" fill="#BAE1FF"/>
<path d="M170.5 43.2553H151.151C149.554 43.2553 148.254 42.0696 148.254 40.6126V34.9325C148.254 33.4754 149.554 32.29 151.151 32.29H170.5C172.098 32.29 173.398 33.4754 173.398 34.9325V40.6126C173.398 42.0696 172.098 43.2553 170.5 43.2553ZM151.151 32.5819C149.73 32.5819 148.574 33.6361 148.574 34.9322V40.6123C148.574 41.9084 149.73 42.9629 151.151 42.9629H170.5C171.921 42.9629 173.077 41.9084 173.077 40.6123V34.9322C173.077 33.6361 171.922 32.5819 170.5 32.5819H151.151Z" fill="#FFB74A"/>
<path d="M152.512 36.6883H151.723V35.7442C151.723 35.3054 151.958 35.0898 152.44 35.0898H155.509C155.99 35.0898 156.226 35.3051 156.226 35.7442V37.2018C156.226 37.4586 156.09 37.6075 155.854 37.6242C156.09 37.6572 156.226 37.7816 156.226 38.0381V39.5869C156.226 40.0256 155.99 40.2412 155.509 40.2412H152.44C151.958 40.2412 151.723 40.0259 151.723 39.5869V38.651H152.512V39.4957C152.512 39.711 152.558 39.7525 152.794 39.7525H155.155C155.391 39.7525 155.436 39.711 155.436 39.4957V38.1377C155.436 37.9224 155.391 37.881 155.155 37.881H153.466V37.3841H155.155C155.391 37.3841 155.436 37.3426 155.436 37.1273V35.8356C155.436 35.6203 155.391 35.5788 155.155 35.5788H152.794C152.558 35.5788 152.512 35.6203 152.512 35.8356V36.6883Z" fill="#FFB74A"/>
<path d="M157.496 36.5049H158.395V37.4572H157.496V36.5049ZM157.496 39.0059H158.395V39.9582H157.496V39.0059Z" fill="#FFB74A"/>
<path d="M164.274 39.5869C164.274 40.0256 164.038 40.2412 163.557 40.2412H160.479C159.998 40.2412 159.762 40.0259 159.762 39.5869V35.7442C159.762 35.3054 159.998 35.0898 160.479 35.0898H163.557C164.038 35.0898 164.274 35.3051 164.274 35.7442V39.5869ZM163.484 35.8353C163.484 35.62 163.438 35.5785 163.203 35.5785H160.842C160.606 35.5785 160.56 35.62 160.56 35.8353V39.4957C160.56 39.711 160.606 39.7525 160.842 39.7525H163.203C163.438 39.7525 163.484 39.711 163.484 39.4957V35.8353Z" fill="#FFB74A"/>
<path d="M169.575 37.1022C170.057 37.1022 170.293 37.3175 170.293 37.7565V39.5869C170.293 40.0256 170.057 40.2412 169.575 40.2412H166.615C166.134 40.2412 165.898 40.0259 165.898 39.5869V38.6261H166.697V39.4957C166.697 39.711 166.743 39.7525 166.979 39.7525H169.221C169.457 39.7525 169.503 39.711 169.503 39.4957V37.8477C169.503 37.6324 169.457 37.5909 169.221 37.5909H165.907V35.0898H170.211V35.5785H166.715V37.1022H169.575Z" fill="#FFB74A"/>
<path d="M32.5153 46.5259L23.5117 50.3584L26.116 55.4485L35.1196 51.616L32.5153 46.5259Z" fill="#9AD1F0"/>
<path d="M23.5117 50.3552L29.3157 50.9839L32.515 46.5225L23.5117 50.3552Z" fill="#BAE1FF"/>
<path d="M35.1166 51.614L29.3129 50.9854L26.1133 55.4465L35.1166 51.614Z" fill="#BAE1FF"/>
<path d="M36.7539 47.4219C37.8745 40.6987 43.4251 34.7531 50.5236 32.6727C53.3107 31.8559 56.4262 31.6196 59.1182 32.6686C61.8103 33.7175 63.9105 36.2756 63.6015 38.9308C63.2924 41.5861 60.0534 43.7962 57.32 42.8399C55.3255 42.1423 54.1959 40.0885 54.1943 38.1401C54.1927 36.1917 55.1122 34.3409 56.1934 32.6607C62.5437 22.7906 75.5262 16.8301 88.0007 18.0575C95.0518 18.7513 101.642 21.4977 108.004 24.3572C114.365 27.2163 120.737 30.2578 127.671 31.6173C134.604 32.977 142.33 32.4472 148.057 28.6322C150.866 26.7609 153.179 23.9044 153.139 20.7318C153.098 17.5592 149.917 14.4105 146.493 14.9678C143.022 15.5328 141.251 19.6045 142.552 22.5934C143.852 25.5823 147.3 27.4047 150.762 28.0123C154.224 28.6199 157.788 28.2399 161.31 28.0994C164.832 27.9589 168.516 28.095 171.624 29.6128C177.578 32.5202 179.512 39.3477 180.557 45.4335" stroke="#9AD1F0" stroke-miterlimit="10"/>
<path d="M60.8703 6.80407C61.4884 6.80407 61.4897 5.92773 60.8703 5.92773C60.2522 5.92773 60.2509 6.80407 60.8703 6.80407Z" fill="#9AD1F0"/>
<path d="M37.4267 65.1056C38.1806 65.1056 38.9028 64.5009 38.8679 63.7911C38.833 63.0789 38.2347 62.4766 37.4267 62.4766C36.6729 62.4766 35.9507 63.0812 35.9856 63.7911C36.0205 64.5032 36.6187 65.1056 37.4267 65.1056Z" fill="#9AD1F0"/>
<path d="M112.196 101.986C112.95 101.986 113.672 101.382 113.637 100.672C113.603 99.9598 113.004 99.3574 112.196 99.3574C111.442 99.3574 110.72 99.9621 110.755 100.672C110.79 101.384 111.388 101.986 112.196 101.986Z" fill="#9AD1F0"/>
<path d="M173.497 55.8429C174.251 55.8429 174.973 55.2382 174.938 54.5284C174.903 53.8162 174.305 53.2139 173.497 53.2139C172.743 53.2139 172.021 53.8185 172.056 54.5284C172.091 55.2405 172.689 55.8429 173.497 55.8429Z" fill="#9AD1F0"/>
<path d="M81.7335 37.4535C82.3516 37.4535 82.3528 36.5771 81.7335 36.5771C81.1154 36.5771 81.1144 37.4535 81.7335 37.4535Z" fill="#9AD1F0"/>
<path d="M128.257 47.8939C128.875 47.8939 128.876 47.0176 128.257 47.0176C127.639 47.0176 127.638 47.8939 128.257 47.8939Z" fill="#9AD1F0"/>
<path d="M66.9681 94.2064C67.5862 94.2064 67.5874 93.3301 66.9681 93.3301C66.3497 93.3301 66.3487 94.2064 66.9681 94.2064Z" fill="#9AD1F0"/>
<path d="M168.882 78.5443C169.5 78.5443 169.501 77.668 168.882 77.668C168.264 77.668 168.263 78.5443 168.882 78.5443Z" fill="#9AD1F0"/>
<path d="M181.612 20.9496C182.231 20.9496 182.232 20.0732 181.612 20.0732C180.994 20.0732 180.993 20.9496 181.612 20.9496Z" fill="#9AD1F0"/>
<path d="M4.74151 45.7045C5.3596 45.7045 5.36056 44.8281 4.74151 44.8281C4.1231 44.8281 4.12214 45.7045 4.74151 45.7045Z" fill="#9AD1F0"/>
<path d="M168.964 105.607C171.68 103.119 175.275 101.44 178.634 99.5699C181.994 97.6995 185.294 95.4728 186.909 92.396C188.367 89.6189 188.398 86.2567 190.81 83.9826C192.687 82.2127 195.632 81.5043 198.456 81.2382C201.438 80.9572 204.71 81.1465 207.028 82.7265C208.979 84.0568 209.918 86.1419 210.552 88.1697C212.848 95.5014 212.241 103.22 211.439 110.765C210.877 116.054 207.941 121.013 203.706 124.699C201.904 126.266 199.511 127.141 197.022 127.141H176.476C174.033 127.141 171.729 126.082 170.296 124.278C168.225 121.67 166.701 118.677 166.173 115.543C165.585 112.057 165.981 108.339 168.964 105.607Z" fill="#FAA147"/>
<path d="M51.055 105.607C48.339 103.119 44.7444 101.44 41.3846 99.5699C38.0249 97.6995 34.7249 95.4728 33.1099 92.396C31.6524 89.6189 31.6214 86.2567 29.2092 83.9826C27.3319 82.2127 24.3871 81.5043 21.5628 81.2382C18.5816 80.9572 15.3095 81.1465 12.9915 82.7265C11.0399 84.0568 10.1015 86.1419 9.46679 88.1697C7.17153 95.5014 7.77777 103.22 8.57969 110.765C9.14173 116.054 12.0778 121.013 16.3135 124.699C18.1146 126.266 20.5082 127.141 22.9972 127.141H43.5435C45.9864 127.141 48.2903 126.082 49.7234 124.278C51.7942 121.67 53.3176 118.677 53.8464 115.543C54.4344 112.057 54.0385 108.339 51.055 105.607Z" fill="#FAA147"/>
<path d="M221.303 127.119H0V128.893H221.303V127.119Z" fill="#BAE1FF"/>
<path d="M26.5729 81.6033L22.3672 81.7607L22.5999 86.9328L26.8056 86.7754L26.5729 81.6033Z" fill="#B7502D"/>
<path d="M26.5682 81.6035L26.6402 83.2034C25.684 83.2756 23.4829 83.2656 22.5195 81.7624L23.1347 81.732L26.5682 81.6035Z" fill="#801400"/>
<path d="M60.3079 122.445L53.9069 114.531C52.9125 115.694 51.8503 116.802 50.8008 117.921L57.4973 124.56C58.1202 125.173 59.1681 125.28 59.9229 124.772C60.7335 124.227 60.9061 123.185 60.3079 122.445Z" fill="#B7502D"/>
<path d="M50.5614 110L50.0855 109.419C49.6842 108.928 49.1494 108.543 48.5368 108.294C48.2271 108.167 47.9164 108.046 47.6055 107.926C47.9357 109.193 49.1526 109.801 50.5614 110Z" fill="#303B6B"/>
<path d="M50.5599 110C49.1508 109.8 47.9342 109.193 47.604 107.926C40.6862 105.26 33.6562 104.136 33.6562 104.136C33.6562 104.136 34.2785 108.82 34.2785 108.883C34.2785 108.946 45.1569 113.225 45.1569 113.225L46.0997 113.477L52.3783 119.854L56.0622 116.721L50.5599 110Z" fill="#3A4882"/>
<path d="M52.0759 118.401L44.2773 111.133" stroke="#303B6B" stroke-width="0.75" stroke-miterlimit="10"/>
<path d="M35.6953 98.8549C36.535 99.4642 37.7382 99.3982 38.4915 98.7138C37.5592 98.4515 36.6273 98.4982 35.6953 98.8549Z" fill="#801400"/>
<path d="M43.1632 93.7463C43.5447 93.3385 43.6177 92.7365 43.2961 92.2533C42.8949 91.6501 42.0334 91.4576 41.3721 91.8237L37.7705 93.817C37.4983 93.4542 37.2244 93.0923 36.9461 92.7339C36.2541 91.8441 35.5437 90.9678 34.8158 90.104C34.0968 89.2338 33.3462 88.3867 32.5827 87.5489C31.808 86.7193 31.0218 85.8976 30.1654 85.1273C29.3084 84.3564 27.9547 84.1844 26.8831 84.7847C25.6223 85.4907 25.2277 86.9951 26.0018 88.1451C26.6311 89.0802 27.3308 89.9644 28.0421 90.8401C28.7643 91.708 29.4996 92.5662 30.2666 93.4016C31.0246 94.2435 31.8 95.0728 32.5939 95.8887C33.3888 96.7039 34.1952 97.5105 35.0477 98.284L35.5271 98.7189C35.5633 98.7516 35.6011 98.7832 35.6405 98.8139C35.6597 98.8288 35.6802 98.8413 35.7 98.8556C36.632 98.4993 37.5642 98.4525 38.4962 98.7145C38.5362 98.6783 38.5759 98.6415 38.6131 98.6018L43.1632 93.7463Z" fill="#B7502D"/>
<path d="M40.8489 96.221L32.8672 96.1865L33.8171 97.1163L40.429 96.6685L40.8489 96.221Z" fill="#801400"/>
<path d="M27.6016 84.084L29.2509 84.5668C29.9801 84.7804 30.6312 85.1718 31.1343 85.6988L36.5738 91.3978L32.4483 96.2197L29.0036 88.6824L28.473 85.3774L27.6016 84.084Z" fill="#918440"/>
<path d="M33.0022 101.008L21.6338 102.722L18.6304 88.7177C18.3601 87.4572 18.9132 86.2161 19.9918 85.6903L23.8528 83.8076L28.5109 84.4295C29.7349 84.5931 30.7181 85.6126 30.9093 86.9011L33.0022 101.008Z" fill="#B7502D"/>
<path d="M33.2841 109.554L24.3717 110.898C23.1538 111.082 21.9913 109.775 21.8866 108.127L21.4805 101.734L32.7877 100.029L34.6589 106.201C35.1419 107.792 34.5023 109.371 33.2841 109.554Z" fill="#B7502D"/>
<path d="M46.7536 116.6C46.59 116.672 46.426 116.745 46.2604 116.814C44.915 117.376 43.6792 117.734 42.5195 118.204L45.6933 124.166C46.0872 124.908 47.0338 125.286 47.9142 125.018C48.8705 124.726 49.3864 123.783 49.0668 122.911L46.7536 116.6Z" fill="#B7502D"/>
<path d="M28.9718 78.3268C29.22 75.8003 27.5687 73.601 25.2837 73.4141C22.9984 73.2271 20.9446 75.1238 20.6964 77.65C20.6189 78.4398 20.7239 79.2469 21.0301 79.991C21.3052 80.6596 21.7446 81.2789 22.3393 81.7477C22.7089 82.0389 23.1527 82.2753 23.6203 82.4067C23.931 82.494 24.2739 82.5087 24.5961 82.539C24.9494 82.5723 25.3039 82.5972 25.6587 82.6132C26.0715 82.6319 26.5077 82.6489 26.9128 82.5586C27.2712 82.4786 27.6097 82.3124 27.8839 82.0874C28.3556 81.7007 28.648 81.1541 28.7043 80.579L28.8622 78.9718C28.9099 78.7617 28.95 78.5476 28.9718 78.3268Z" fill="#B7502D"/>
<path d="M21.6247 77.6936C21.5001 77.4406 21.1552 77.2727 20.8141 77.2677C20.4734 77.2627 20.1486 77.4056 19.9408 77.6144C19.7329 77.8236 19.6343 78.0926 19.6193 78.3611C19.6036 78.6383 19.6763 78.9257 19.8687 79.162C20.0615 79.3987 20.3824 79.5777 20.7334 79.6055C21.0844 79.6332 21.453 79.4921 21.6007 79.243L21.6247 77.6936Z" fill="#B7502D"/>
<path d="M20.6719 79.1141C20.9848 78.6812 20.9995 78.132 20.7106 77.6729" stroke="#801400" stroke-width="0.5683" stroke-miterlimit="10" stroke-linecap="round" stroke-linejoin="round"/>
<path d="M20.8571 78.3135C20.5641 78.4034 20.3262 78.5808 20.207 78.7978" stroke="#801400" stroke-width="0.5683" stroke-miterlimit="10" stroke-linecap="round" stroke-linejoin="round"/>
<path d="M56.0486 124.051C56.1418 124.229 56.2475 124.414 56.358 124.603C56.4252 124.719 56.495 124.833 56.5658 124.95C56.6664 125.114 56.7705 125.279 56.8713 125.438C57.093 125.789 57.3072 126.114 57.4837 126.377C57.7303 126.749 57.8981 126.994 57.8981 126.994L67.2649 123.024C67.2649 123.024 67.3904 122.634 66.9389 122.377C66.2769 121.995 65.1794 121.552 63.7997 121.693C62.2859 121.847 61.2268 121.654 60.4275 121.351C60.4022 121.341 60.3778 121.332 60.3551 121.321C60.1136 121.23 59.8981 121.122 59.6976 121.016C59.6745 121.005 59.6531 120.99 59.6326 120.978C59.5285 120.92 59.4327 120.861 59.3379 120.804C58.4393 120.256 58.2564 122.863 58.2564 122.863C58.2564 122.863 56.04 122.492 55.6512 122.845C55.526 122.961 55.7245 123.448 56.0486 124.051Z" fill="#1B141C"/>
<path d="M57.4883 126.376C57.6577 126.778 57.7951 127.04 57.7951 127.04L67.2721 123.022C67.2721 123.022 67.396 122.632 66.9435 122.376L57.4883 126.376Z" fill="#D5D5D1"/>
<path d="M59.2723 121.933L59.7242 122.145C59.7998 122.181 59.8939 122.152 59.9311 122.084L60.3561 121.323C60.1146 121.232 59.8991 121.124 59.6986 121.017C59.6755 121.006 59.6541 120.992 59.6336 120.979L59.2051 121.744C59.1654 121.813 59.1951 121.9 59.2723 121.933Z" fill="#D5D5D1"/>
<path d="M56.3555 124.603C56.4227 124.719 56.4925 124.833 56.5633 124.95C57.0194 125 57.4905 124.979 57.9487 124.882C58.2607 124.818 58.57 124.716 58.8573 124.581C59.1433 124.45 59.4017 124.303 59.6538 124.184C59.9068 124.067 60.1457 123.984 60.3865 123.955C60.6286 123.923 60.8829 123.944 61.1234 123.999C61.6076 124.111 62.0413 124.388 62.3212 124.735L63.1397 124.117C62.6469 123.627 61.9875 123.307 61.2896 123.215C60.9418 123.168 60.5806 123.174 60.2334 123.253C59.8818 123.329 59.5683 123.48 59.3047 123.638C59.0363 123.799 58.8006 123.967 58.5633 124.104C58.3295 124.242 58.0791 124.353 57.811 124.435C57.3505 124.58 56.8515 124.636 56.3555 124.603Z" fill="#D5D5D1"/>
<path d="M44.6123 123.769C44.6149 123.966 44.6255 124.175 44.6383 124.388C44.646 124.519 44.6565 124.65 44.6668 124.783C44.6825 124.97 44.7007 125.16 44.719 125.343C44.758 125.746 44.8022 126.124 44.8413 126.43C44.8932 126.862 44.9323 127.149 44.9323 127.149L55.2611 127.142C55.2611 127.142 55.5551 126.836 55.2637 126.43C54.8393 125.829 54.0483 125.006 52.7314 124.605C51.2871 124.163 50.4153 123.582 49.8299 123C49.8117 122.981 49.7934 122.964 49.7777 122.945C49.6006 122.77 49.4549 122.589 49.3223 122.416C49.3066 122.397 49.2938 122.376 49.2807 122.357C49.2131 122.264 49.1532 122.174 49.0933 122.086C48.5313 121.244 47.1625 123.539 47.1625 123.539C47.1625 123.539 45.3227 122.352 44.8074 122.523C44.6408 122.58 44.5966 123.097 44.6123 123.769Z" fill="#1B141C"/>
<path d="M44.8327 126.43C44.801 126.859 44.8048 127.149 44.8048 127.149L55.2557 127.142C55.2557 127.142 55.5481 126.835 55.2554 126.43H44.8327Z" fill="#D5D5D1"/>
<path d="M48.5106 123.083L48.8229 123.448C48.8751 123.51 48.9737 123.52 49.0391 123.472L49.7753 122.945C49.5982 122.769 49.4525 122.589 49.3199 122.416C49.3042 122.397 49.2914 122.375 49.2783 122.356L48.5366 122.886C48.469 122.933 48.4559 123.024 48.5106 123.083Z" fill="#D5D5D1"/>
<path d="M44.6367 124.388C44.6444 124.518 44.655 124.649 44.6652 124.782C45.0556 125.003 45.4928 125.164 45.9533 125.252C46.2655 125.313 46.5935 125.34 46.9163 125.328C47.2362 125.318 47.5382 125.285 47.822 125.273C48.1057 125.263 48.3606 125.28 48.5922 125.347C48.8263 125.411 49.0476 125.527 49.2401 125.669C49.6279 125.957 49.8931 126.374 49.9869 126.797L51.0149 126.55C50.7936 125.916 50.3437 125.373 49.7528 125.022C49.4588 124.846 49.1283 124.713 48.777 124.651C48.4231 124.585 48.0692 124.601 47.757 124.644C47.4396 124.687 47.1482 124.749 46.8695 124.782C46.5938 124.817 46.3152 124.822 46.034 124.794C45.5501 124.748 45.0713 124.609 44.6367 124.388Z" fill="#D5D5D1"/>
<path d="M44.8988 89.4968L44.6416 89.1801C44.6246 89.1541 44.6048 89.1299 44.5824 89.1071L44.5734 89.096L44.5724 89.0977C44.4853 89.0151 44.3662 88.959 44.2342 88.959H34.364C34.1971 88.959 34.0607 89.0504 34.0178 89.1906L32.1466 95.3062C32.112 95.4193 32.1453 95.5364 32.2173 95.632L32.2161 95.634L32.5385 96.0348L32.8175 95.8294H42.478C42.6448 95.8294 42.7812 95.738 42.8242 95.5978L44.5827 89.8505L44.8988 89.4968Z" fill="#A8A8A8"/>
<path d="M42.7911 96.2207H32.9209C32.6256 96.2207 32.3835 95.9464 32.4594 95.6979L34.3306 89.5822C34.3735 89.4417 34.5103 89.3506 34.6768 89.3506H44.5471C44.8424 89.3506 45.0845 89.6249 45.0082 89.8735L43.137 95.9891C43.0944 96.1293 42.958 96.2207 42.7911 96.2207Z" fill="#CCCCCC"/>
<path d="M44.9981 110.823L44.7032 110.015C44.4595 109.347 43.9275 108.795 43.2242 108.504C42.9812 108.404 42.7208 108.307 42.4492 108.212C42.5495 109.528 43.736 110.487 44.9981 110.823Z" fill="#303B6B"/>
<path d="M44.9915 110.824C43.7294 110.489 42.5432 109.53 42.4426 108.213C39.4594 107.175 35.0274 106.517 35.0274 106.517L32.996 100.392L21.2539 102.081L21.7801 108.479C21.8698 109.568 22.5955 110.529 23.6802 110.992C29.8396 113.622 39.7829 113.509 39.7829 113.509L43.307 120.303L47.8181 118.57L44.9915 110.824Z" fill="#556BC1"/>
<path d="M56.3563 116.497L52.1981 120.303L50.3711 118.956L55.1826 114.97L56.3563 116.497Z" fill="#303B6B"/>
<path d="M48.1371 118.709L43.0975 120.681L41.9414 118.815L47.6612 116.895L48.1371 118.709Z" fill="#3A4882"/>
<path d="M43.4602 119.206L40.3409 112.804C40.3409 112.804 30.5081 112.804 25.3203 110.608" stroke="#3A4882" stroke-width="0.75" stroke-miterlimit="10"/>
<path d="M32.6549 96.2208C32.6549 96.2208 36.5572 95.6483 37.4895 95.5998C38.4218 95.5513 39.1564 95.3901 39.354 95.2589C39.5519 95.128 38.9028 94.753 37.5433 94.8608C37.5433 94.8608 39.2051 94.6361 39.8527 94.1705C40.5002 93.7049 38.1656 93.9695 37.4107 94.1649C37.4107 94.1649 39.387 93.6467 39.9968 93.0967C40.6065 92.5469 38.0685 93.0476 37.1148 93.4116C37.1148 93.4116 38.9851 92.5513 39.3012 92.0749C39.6173 91.5985 37.4777 92.379 36.6584 92.8014C35.8396 93.2238 35.4821 93.0456 35.5593 92.884C35.6365 92.7225 36.0215 92.1348 36.2604 91.8567C36.4096 91.6829 36.5432 91.0879 36.1963 91.188C35.9881 91.2482 35.5536 91.6876 35.3022 91.9578C34.6319 92.6778 33.3445 93.7788 32.6248 94.0431C31.9052 94.3075 31.6055 94.3861 31.6055 94.3861L32.6549 96.2208Z" fill="#B7502D"/>
<path d="M34.5691 102.42C34.4765 102.248 34.277 102.158 34.0797 102.18C33.3649 96.6643 32.3026 91.3251 30.735 85.971C30.5287 85.2662 29.9292 84.7129 29.1625 84.5061L27.5978 84.084C27.6221 84.5429 27.4354 85.0006 27.1241 85.3617C26.8128 85.7227 26.3827 85.99 25.9167 86.1638C25.1203 86.4609 24.2069 86.4883 23.3909 86.2398C22.5749 85.9909 21.863 85.468 21.4226 84.7938L20.0138 85.5437C19.2375 85.957 18.7315 86.6969 18.6883 87.516C18.409 92.795 19.6465 98.7351 20.8801 103.866C20.7046 103.901 20.5576 104.024 20.5144 104.195C20.4548 104.431 20.6162 104.666 20.8747 104.72C22.1816 104.995 23.5216 105.131 24.881 105.131C27.9939 105.131 31.207 104.416 34.35 103.007C34.588 102.9 34.686 102.637 34.5691 102.42Z" fill="#C1AF55"/>
<path d="M20.168 100.281C20.1888 100.323 20.2064 100.365 20.2304 100.407C20.7323 101.27 21.7984 101.682 22.7953 101.471C22.4181 100.684 21.0836 100.137 20.168 100.281Z" fill="#801400"/>
<path d="M35.6844 94.1216C35.4427 93.4556 34.6548 93.0946 33.9247 93.3151L24.8522 96.0557C24.8201 95.1493 24.7673 94.2449 24.693 93.342C24.6779 93.1287 24.6546 92.9161 24.6357 92.7031C22.7542 93.2064 20.8522 93.6604 18.9297 94.0004C19.0411 94.8776 19.1702 95.7536 19.322 96.6273C19.4844 97.5548 19.6615 98.4808 19.8972 99.4021L20.0256 99.9063C20.0586 100.032 20.1098 100.156 20.17 100.278C21.0856 100.134 22.4201 100.682 22.7971 101.468C22.9876 101.428 23.1763 101.367 23.3572 101.279L35.0148 95.6429C35.6047 95.3587 35.9013 94.719 35.6844 94.1216Z" fill="#B7502D"/>
<path d="M28.7955 84.4082C28.7251 84.8931 28.4913 85.3576 28.1582 85.7461C27.7163 86.2544 27.111 86.6341 26.4545 86.8795C25.3304 87.2972 24.0429 87.3352 22.89 86.9846C21.9036 86.6838 21.0229 86.0995 20.3984 85.3371L21.4168 84.7938C21.8588 85.4686 22.5698 85.9915 23.3864 86.2398C24.2031 86.4881 25.1158 86.4618 25.9132 86.1638C26.3776 85.9885 26.8067 85.7227 27.1206 85.3605C27.4312 85.0012 27.617 84.5426 27.5946 84.084L28.7955 84.4082Z" fill="#918440"/>
<path d="M21.4242 84.7949L19.6676 85.7685C18.849 86.2222 18.3395 87.0214 18.3097 87.8945C18.2434 89.8478 17.9081 91.8219 18.824 95.4213L24.9825 94.6084C24.9825 94.6084 25.1122 89.7304 23.7921 86.9326L21.3774 85.6543L21.4242 84.7949Z" fill="#918440"/>
<path d="M27.8491 84.7938C27.8491 84.7938 29.5586 84.8192 31.0369 86.7761L30.7574 85.8851C30.5678 85.2816 29.933 84.7441 29.2765 84.5391L27.6016 84.084L27.8491 84.7938Z" fill="#918440"/>
<path d="M30.4495 93.6329L26.78 94.2653C26.1039 94.3819 25.4519 93.9764 25.3241 93.3595L25.1352 92.4481C25.0074 91.8312 25.4519 91.2367 26.1283 91.1202L29.7978 90.4877C30.4741 90.3712 31.1259 90.7766 31.2536 91.3936L31.4426 92.305C31.5704 92.9216 31.1259 93.5163 30.4495 93.6329Z" fill="#918440"/>
<path d="M19.1172 95.3826L24.7819 94.6348L24.8209 95.422L19.3314 96.6734L19.1172 95.3826Z" fill="#801400"/>
<path d="M23.82 74.0951C23.5343 73.895 23.1503 73.81 22.7999 73.8859C22.4614 73.9595 22.1774 74.1713 21.9487 74.4105C21.5804 74.7958 21.3258 75.2626 21.1439 75.7464C20.962 76.2301 20.8403 76.7617 20.75 77.2677C20.921 77.3612 21.0856 77.4631 21.2464 77.57L21.2112 79.1424C21.5093 79.1424 21.7678 78.952 21.8296 78.6862C21.8959 78.4019 21.9964 78.17 21.9964 78.17C22.1393 77.8052 22.3314 77.478 22.5104 77.1266C22.9345 76.2935 23.5606 75.5469 24.3311 74.9553C24.277 74.6305 24.1056 74.2954 23.82 74.0951Z" fill="#801400"/>
<path d="M30.1665 73.1555C29.183 73.4319 28.1047 73.4669 27.1295 73.1672C26.2068 72.8839 25.3953 72.3134 24.4384 72.1498C23.5843 72.004 22.6645 72.2149 21.9878 72.7124C21.3111 73.2096 20.4733 74.4221 21.4469 75.6607L26.5575 77.0952C26.9671 77.0812 28.0765 77.1633 28.4726 77.0663C28.8688 76.9693 29.2512 76.7815 29.4942 76.4806C29.7376 76.1795 29.7684 75.7503 29.5762 75.4197C29.7508 75.3542 29.9173 75.2628 30.0409 75.1328C30.1645 75.0025 30.2417 74.8305 30.2251 74.659C30.2084 74.4875 30.1396 74.2775 29.9621 74.2188C30.1757 74.1256 30.3327 73.932 30.3679 73.7184C30.4031 73.5049 30.3404 73.3022 30.1665 73.1555Z" fill="#1B141C"/>
<path d="M23.1623 76.3914C24.4625 76.8483 25.8364 77.0969 27.2132 77.1246C27.6459 77.1334 28.0843 77.117 28.5067 77.0189C28.7177 76.9698 28.924 76.9 29.1168 76.8021C29.3073 76.7054 29.3848 76.6581 29.3032 76.4472C29.0255 75.7309 28.5759 75.0705 28.0334 74.5225C27.537 74.0206 26.9493 73.6053 26.304 73.312C25.659 73.0187 24.9506 72.8423 24.2432 72.875C23.5357 72.9077 22.8302 73.1604 22.3168 73.6383C22.0597 73.8778 21.8563 74.1673 21.6834 74.4705C21.5549 74.6954 21.1268 75.3822 21.3788 75.5612C22.0312 76.0245 22.5336 76.1706 23.1623 76.3914Z" fill="#1B141C"/>
<path d="M43.7109 120.44L47.604 118.917L47.8224 119.513L44.2743 121.499L43.7109 120.44Z" fill="#801400"/>
<path d="M55.8608 116.948L52.7188 119.824L53.6318 120.729L56.2444 117.423L55.8608 116.948Z" fill="#801400"/>
<path d="M25.4706 78.6294C25.4274 78.9688 25.2314 79.227 25.0325 79.206C24.8336 79.185 24.7074 78.8928 24.7507 78.5534C24.7939 78.214 24.9899 77.9558 25.1888 77.9768C25.3873 77.9975 25.5135 78.2899 25.4706 78.6294Z" fill="#1B141C"/>
<path d="M28.5175 78.9497C28.4742 79.2891 28.2783 79.5473 28.0794 79.5263C27.8805 79.5053 27.7543 79.2132 27.7976 78.8737C27.8408 78.5343 28.0368 78.2761 28.2357 78.2971C28.4342 78.3178 28.5607 78.6102 28.5175 78.9497Z" fill="#1B141C"/>
<path d="M26.6427 78.7549C26.6151 79.0038 26.6955 79.2506 26.7595 79.4939C26.8236 79.7373 26.871 79.9972 26.781 80.2336C26.691 80.4699 26.4185 80.6656 26.1523 80.606" stroke="#1B141C" stroke-width="0.75" stroke-miterlimit="10" stroke-linecap="round" stroke-linejoin="round"/>
<path d="M24.8242 81.0801C25.1976 81.468 25.7776 81.6821 26.3416 81.6406" stroke="#1B141C" stroke-width="0.75" stroke-miterlimit="10" stroke-linecap="round" stroke-linejoin="round"/>
<path d="M87.8721 79.4929C89.4112 78.9171 90.8286 77.9739 91.6671 76.6635C92.5055 75.3531 92.689 73.6507 91.9066 72.3116C91.228 71.1508 89.8464 70.1439 90.0773 68.8452C90.3217 67.4705 92.1846 66.9172 93.0342 65.7602C93.8358 64.6686 93.5188 63.0219 92.3572 62.2449C90.8956 61.2669 88.7832 61.7472 87.1288 61.0712C85.9131 60.5746 84.9388 59.4582 83.6069 59.457C82.4383 59.4559 81.4987 60.3413 80.9116 61.2632C80.3249 62.1851 79.9179 63.2299 79.0817 63.9748C77.7264 65.1824 75.483 65.3831 74.3548 66.7712C73.6188 67.6764 73.5391 68.9229 73.8849 70.0048C74.2308 71.0868 74.9524 72.0341 75.7187 72.9184C76.5754 73.9072 77.5659 75.0899 77.1608 76.2946C76.821 77.3056 75.6412 77.8384 74.8611 78.6201C73.753 79.7307 73.4808 81.4118 73.9628 82.8478C74.4447 84.2838 75.5999 85.4785 76.9751 86.3049C78.3499 87.1313 79.9371 87.6182 81.5384 87.9688C85.1297 84.301 88.3332 80.7349 91.6514 76.8589" fill="#1B141C"/>
<path d="M105.272 82.9916C105.272 82.9916 108.773 81.4587 109.636 81.1756C110.5 80.8925 111.142 80.5537 111.289 80.3799C111.435 80.2061 110.709 80.018 109.461 80.4658C109.461 80.4658 110.958 79.831 111.425 79.2278C111.893 78.6243 109.775 79.4679 109.123 79.8445C109.123 79.8445 110.827 78.853 111.233 78.1797C111.639 77.5064 109.401 78.6243 108.614 79.21C108.614 79.21 110.113 77.9232 110.265 77.3939C110.417 76.8646 108.64 78.1447 107.998 78.7511C107.355 79.3575 106.964 79.2807 106.988 79.1086C107.011 78.9369 107.194 78.2852 107.334 77.9624C107.421 77.7608 107.365 77.1661 107.069 77.349C106.891 77.4585 106.616 77.9831 106.462 78.3015C106.051 79.1507 105.175 80.5154 104.578 80.9477C103.981 81.3801 103.723 81.5305 103.723 81.5305L105.272 82.9916Z" fill="#FF5754"/>
<path d="M78.0801 91.7715C78.0801 91.7715 76.3104 94.6821 78.5919 96.3433L79.7813 94.8597L79.9036 92.2117L78.0801 91.7715Z" fill="#FF5754"/>
<path d="M86.9698 70.6553H82.6992V75.9074H86.9698V70.6553Z" fill="#FF5754"/>
<path d="M86.9672 70.6553V72.2797C85.9946 72.3165 83.7634 72.223 82.8555 70.6626L83.4806 70.6553H86.9672Z" fill="#DA2727"/>
<path d="M89.1218 66.9335C89.1218 64.3597 87.2345 62.2734 84.9066 62.2734C82.5787 62.2734 80.6914 64.3597 80.6914 66.9335C80.6914 67.7382 80.8781 68.5453 81.2611 69.2715C81.6057 69.9247 82.1111 70.5142 82.7587 70.9386C83.1612 71.2024 83.6329 71.4045 84.1184 71.4986C84.4413 71.5611 84.7894 71.5477 85.1176 71.5517C85.4779 71.5564 85.8385 71.552 86.1988 71.5389C86.6177 71.5237 87.0603 71.5047 87.4606 71.38C87.8148 71.2696 88.1405 71.0736 88.3951 70.8235C88.8332 70.3935 89.0747 69.8172 89.0747 69.2312V67.5939C89.1026 67.3781 89.1218 67.1587 89.1218 66.9335Z" fill="#FF5754"/>
<path d="M81.6336 66.9011C81.4824 66.6557 81.117 66.5143 80.7721 66.5377C80.4272 66.561 80.1133 66.7319 79.9241 66.9603C79.7348 67.1888 79.6618 67.4689 79.673 67.7415C79.6845 68.023 79.7867 68.3073 80.0048 68.5304C80.2229 68.7536 80.5652 68.9081 80.9226 68.907C81.28 68.9058 81.6387 68.7329 81.7633 68.4691L81.6336 66.9011Z" fill="#FF5754"/>
<path d="M80.815 68.4157C81.0882 67.9524 81.0485 67.396 80.7109 66.9561" stroke="#DA2727" stroke-width="0.5766" stroke-miterlimit="10" stroke-linecap="round" stroke-linejoin="round"/>
<path d="M80.9174 67.5908C80.6301 67.7062 80.4072 67.9048 80.3086 68.1339" stroke="#DA2727" stroke-width="0.5766" stroke-miterlimit="10" stroke-linecap="round" stroke-linejoin="round"/>
<path d="M93.4115 112.03C93.4038 111.206 93.3965 110.382 93.3856 109.558L93.3571 109.345C93.2962 108.718 93.2286 108.092 93.1531 107.468C92.1715 108.996 91.9425 110.863 93.4115 112.03Z" fill="#DA2727"/>
<path d="M93.1455 107.467C93.0687 106.83 92.9835 106.194 92.8871 105.561C92.6892 104.306 92.4791 103.053 92.2639 101.801C92.1057 100.886 91.9433 99.9713 91.7736 99.0576C89.8604 99.4417 87.9087 99.6795 85.9641 99.6325C85.7822 99.6927 85.5971 99.7438 85.4062 99.7783C85.5725 100.767 85.7489 101.754 85.9302 102.74C86.1608 103.99 86.3965 105.239 86.6444 106.486C86.8996 107.732 87.1968 108.972 87.5193 110.208L87.4908 109.996C87.8908 112.389 88.2985 114.781 88.7484 117.171C88.9688 118.366 89.2032 119.56 89.4415 120.753C89.697 121.946 89.9282 123.14 90.2053 124.33C90.3478 124.942 90.9274 125.414 91.6439 125.444C92.4951 125.48 93.2166 124.879 93.2557 124.103C93.3169 122.887 93.3319 121.674 93.3716 120.46C93.3937 119.247 93.412 118.034 93.4165 116.822C93.4283 115.223 93.4187 113.626 93.4037 112.029C91.9346 110.862 92.1636 108.995 93.1455 107.467Z" fill="#FF5754"/>
<path d="M95.0312 87.8484L95.2237 88.0447C95.9206 88.7507 97.1075 88.8585 97.9459 88.2687L98.0304 88.2091C97.1581 87.7441 96.0971 87.4009 95.0312 87.8484Z" fill="#DA2727"/>
<path d="M107.195 80.6676C106.901 80.1359 106.191 79.9218 105.608 80.1897L97.4532 83.9357C97.1541 83.56 96.8579 83.1823 96.5559 82.809L94.5831 80.3807L94.4729 80.2472C93.737 80.82 92.9722 81.364 92.2106 81.9377C92.3493 81.836 91.7697 82.2949 91.712 82.3419C91.4017 82.5964 91.1039 82.8631 90.7913 83.1155C90.7314 83.1637 90.6696 83.2104 90.6094 83.2583L90.6296 83.2799L92.806 85.559C93.533 86.3173 94.2692 87.0695 95.0065 87.8202L95.0356 87.8497C96.1017 87.4022 97.1627 87.7454 98.0351 88.2104L106.861 82.0063C107.301 81.6976 107.454 81.1373 107.195 80.6676Z" fill="#FF5754"/>
<path d="M77.9683 99.1758C77.8414 100.176 77.7172 101.177 77.5913 102.178C77.4418 103.385 77.2717 104.589 77.1891 105.803L76.955 109.448C76.7913 111.876 76.6552 114.307 76.5354 116.74C76.4185 119.173 76.3279 121.608 76.2776 124.048C76.2639 124.699 76.7506 125.292 77.4741 125.442C78.3026 125.614 79.1269 125.141 79.3156 124.386C79.909 122.009 80.4624 119.628 80.9899 117.245C81.5138 114.861 82.0217 112.476 82.5021 110.088C82.7423 108.894 82.9774 107.699 83.263 106.511C83.5298 105.321 83.7088 104.121 83.9083 102.923C84.0777 101.893 84.2484 100.863 84.4163 99.833C82.2465 99.7057 80.1466 99.4907 77.9683 99.1758Z" fill="#FF5754"/>
<path d="M71.9012 83.6934L71.7318 83.894C71.205 84.5209 71.1874 85.4165 71.7475 86.0662L71.9198 86.266C72.2333 85.4282 72.3204 84.5142 71.9012 83.6934Z" fill="#DA2727"/>
<path d="M80.0883 92.2964L76.3461 85.3745C76.6773 85.0646 77.011 84.757 77.3389 84.4444L78.34 83.486C78.3122 83.4615 78.2811 83.4396 78.2542 83.4141C77.1243 82.357 75.9116 81.374 74.8211 80.2842L73.7085 81.5648C73.116 82.2498 72.5325 82.9415 71.95 83.6344L71.8984 83.6957C72.3177 84.5166 72.2309 85.4306 71.917 86.2684L78.0979 93.4405C78.4361 93.8334 79.0408 93.9713 79.5512 93.7414C80.1367 93.4779 80.3775 92.8309 80.0883 92.2964Z" fill="#FF5754"/>
<path d="M89.1408 91.1902H80.4315L78.5509 78.2938C78.3197 76.7076 78.9557 75.2138 80.1445 74.7277L84.5768 72.916L89.3823 74.7601C90.5944 75.2252 91.25 76.7313 91.0159 78.3353L89.1408 91.1902Z" fill="#FF5754"/>
<path d="M89.2593 96.5908H80.3076C79.0842 96.5908 78.4754 94.9947 78.9507 93.365L80.4299 88.291H89.1373L90.6166 93.365C91.0915 94.9944 90.4827 96.5908 89.2593 96.5908Z" fill="#FF5754"/>
<path d="M79.9648 87.9902L80.0436 88.5295C80.0436 88.5295 84.4936 89.1482 89.5808 88.1751L89.6743 87.6572L79.9648 87.9902Z" fill="#DA2727"/>
<path d="M90.1172 65.3853C89.3461 66.4804 87.7541 67.0316 86.3808 66.6793C85.6916 66.5026 85.0527 66.1234 84.3369 66.1076C83.706 66.0939 83.0771 66.391 82.7257 66.8692C82.4113 67.2971 82.3225 67.8299 82.0689 68.29C81.6561 69.039 80.7812 69.5575 79.863 69.5975C79.4351 68.7214 79.2193 67.8752 79.3362 66.922C79.4681 65.8471 79.7282 64.761 80.3469 63.8385C81.438 62.2112 83.6644 61.2869 85.7265 61.6053C87.7887 61.9234 89.674 63.521 90.1172 65.3853Z" fill="#1B141C"/>
<path d="M89.421 89.2598C84.457 90.7481 80.1489 89.2615 80.1489 89.2615L78.8836 92.9459C78.4465 94.2186 78.1701 95.5328 78.0596 96.8628L77.8047 99.9323L84.3792 100.406L84.8778 97.0933L85.0777 96.9659L85.3374 100.424L92.0749 99.5835L91.5615 96.4279C91.3899 95.3719 91.1308 94.3293 90.7865 93.309L89.421 89.2598Z" fill="#556BC1"/>
<path d="M89.8314 87.8955C89.9416 86.7367 90.1228 85.428 90.607 84.2649C91.1364 82.993 91.7391 81.7007 91.7276 80.3406C91.717 79.0898 91.0689 77.8478 90.803 76.6063C90.6038 75.6756 89.9214 74.8919 88.9754 74.4993L87.5547 73.9095C87.2915 74.6348 86.714 75.2673 85.9627 75.6049C85.2114 75.9423 84.2929 75.971 83.5329 75.6502C82.7727 75.3295 82.1219 74.6197 81.9973 73.8643L80.8892 74.3646C79.5272 74.9795 78.6827 76.2558 78.7035 77.6418C78.7557 81.1033 79.0836 84.5888 79.8077 87.9703C83.4148 88.4686 86.5171 88.4531 89.8314 87.8955Z" fill="#9843E7"/>
<path d="M81.9978 73.8633L80.3017 74.5737C79.3832 74.9584 78.5791 75.5382 77.9568 76.2647L73.6875 81.2481L77.8041 84.4403L79.5526 82.8045L81.0098 75.9075L81.9978 73.8633Z" fill="#9843E7"/>
<path d="M87.5512 73.9092L89.0401 74.4881C90.1744 74.9292 91.1525 75.649 91.8651 76.5668L95.3811 81.0966L91.7241 84.7477L89.9169 82.9929L86.9648 76.8753L87.5512 73.9092Z" fill="#9843E7"/>
<path d="M77.4632 99.1279L84.4867 100.278L84.3631 101.122L77.3047 100.424L77.4632 99.1279Z" fill="#3A4882"/>
<path d="M92.1762 99.1279L85.1523 100.278L85.2763 101.122L92.3347 100.424L92.1762 99.1279Z" fill="#3A4882"/>
<path d="M83.6719 100.424L84.3386 96.999" stroke="#3A4882" stroke-width="0.75" stroke-miterlimit="10"/>
<path d="M86.1451 100.503L85.6055 96.999" stroke="#3A4882" stroke-width="0.75" stroke-miterlimit="10"/>
<path d="M79.582 92.2238C80.2488 92.2334 80.9162 92.0024 81.4078 91.5917C81.8994 91.181 82.2104 90.5947 82.2584 89.9883" stroke="#3A4882" stroke-width="0.75" stroke-miterlimit="10"/>
<path d="M89.774 92.2238C89.1073 92.2334 88.4398 92.0024 87.9483 91.5917C87.4567 91.181 87.1457 90.5947 87.0977 89.9883" stroke="#3A4882" stroke-width="0.75" stroke-miterlimit="10"/>
<path d="M84.9375 90.5918V95.3307" stroke="#3A4882" stroke-width="0.75" stroke-miterlimit="10"/>
<path d="M84.008 90.7295L83.9305 92.736C83.9046 93.4043 84.4919 93.9594 85.2253 93.9594H85.2733" stroke="#3A4882" stroke-width="0.75" stroke-miterlimit="10"/>
<path d="M77.8152 100.474L77.7031 101.37L84.1201 101.702L84.2181 101.107L77.8152 100.474Z" fill="#DA2727"/>
<path d="M92.0361 100.452L92.203 101.398L85.7502 101.701L85.6406 101.085L92.0361 100.452Z" fill="#DA2727"/>
<path d="M81.2918 118.307C81.2758 118.459 81.1349 118.573 80.9716 118.573C80.962 118.573 80.9524 118.573 80.9428 118.57L80.8723 118.564L80.6802 119.312L80.5136 119.963L80.3919 120.427L80.2254 121.079L79.3927 124.324L76.1133 123.991L76.2318 120.693L76.2574 120.027L76.2735 119.551L76.2991 118.888L76.3247 118.161L76.251 118.155C76.0749 118.14 75.9436 117.997 75.9628 117.836C75.9788 117.676 76.1357 117.559 76.3119 117.573L81.0036 117.988C81.1798 118.003 81.3078 118.146 81.2918 118.307Z" fill="#D5D5D1"/>
<path d="M80.6841 119.312L80.5175 119.964L76.2773 119.552L76.303 118.889L80.6841 119.312Z" fill="#9E9E9B"/>
<path d="M80.3984 120.429L80.2319 121.08L76.2383 120.694L76.2639 120.028L80.3984 120.429Z" fill="#9E9E9B"/>
<path d="M88.4966 118.122C88.5072 118.275 88.644 118.393 88.8073 118.398C88.8169 118.398 88.8265 118.398 88.8361 118.396L88.9066 118.392L89.0721 119.145L89.2153 119.801L89.3203 120.269L89.4635 120.925L90.1802 124.193L93.4699 123.957L93.4689 120.658L93.467 119.991L93.468 119.515L93.466 118.852L93.4664 118.124L93.54 118.12C93.7165 118.111 93.8529 117.972 93.8395 117.811C93.8292 117.65 93.6765 117.528 93.5 117.538L88.7961 117.813C88.6196 117.822 88.4864 117.961 88.4966 118.122Z" fill="#D5D5D1"/>
<path d="M89.082 119.145L89.2252 119.801L93.4778 119.515L93.4759 118.852L89.082 119.145Z" fill="#9E9E9B"/>
<path d="M89.3164 120.269L89.4596 120.925L93.465 120.658L93.4631 119.992L89.3164 120.269Z" fill="#9E9E9B"/>
<path d="M73.6953 126.635V127.12H79.5784V127.114C79.5784 126.883 79.5784 126.664 79.572 126.454C79.5688 126.287 79.5688 126.127 79.5688 125.978C79.5656 125.905 79.5656 125.832 79.5656 125.762C79.5624 125.607 79.5624 125.461 79.5624 125.329C79.5624 125.271 79.5624 125.212 79.5656 125.16C79.5656 125.022 79.5688 124.906 79.5688 124.809C79.572 124.719 79.5656 124.625 79.5464 124.538C79.5432 124.523 79.54 124.508 79.5368 124.491C79.5336 124.482 79.5336 124.473 79.5304 124.462C79.5304 124.456 79.5272 124.447 79.5239 124.441C79.5047 124.362 79.4759 124.289 79.4439 124.21L78.8066 122.875C78.6849 122.572 78.3678 122.373 78.0123 122.373H76.7345C76.2638 122.373 75.8827 122.718 75.8827 123.147L74.4063 124.809C74.1757 125.069 73.9964 125.358 73.8747 125.665C73.7754 125.919 73.7177 126.182 73.7017 126.454C73.6953 126.515 73.6953 126.574 73.6953 126.635Z" fill="#1B141C"/>
<path d="M75.543 126.641V127.124L79.5811 127.119C79.5811 126.889 79.5795 126.669 79.5763 126.46H75.5478C75.5446 126.521 75.543 126.581 75.543 126.641Z" fill="#A8A8A5"/>
<path d="M76.4893 123.884H77.8623C78.0679 123.884 78.2344 123.732 78.2344 123.545C78.2344 123.357 78.0679 123.205 77.8623 123.205H76.4893C76.2837 123.205 76.1172 123.357 76.1172 123.545C76.1172 123.732 76.284 123.884 76.4893 123.884Z" fill="#D5D5D1"/>
<path d="M75.862 124.422H77.6224C77.7207 124.422 77.8008 124.349 77.8008 124.259C77.8008 124.169 77.7211 124.097 77.6224 124.097H75.862C75.7637 124.097 75.6836 124.169 75.6836 124.259C75.6836 124.349 75.7637 124.422 75.862 124.422Z" fill="#D5D5D1"/>
<path d="M75.5335 124.978H77.294C77.3923 124.978 77.472 124.906 77.472 124.816C77.472 124.726 77.3923 124.653 77.294 124.653H75.5335C75.4352 124.653 75.3555 124.726 75.3555 124.816C75.3551 124.906 75.4349 124.978 75.5335 124.978Z" fill="#D5D5D1"/>
<path d="M73.6953 126.464V127.124L77.2027 127.12C77.4007 127.12 77.5614 126.973 77.5601 126.792C77.5601 126.79 77.5601 126.788 77.5601 126.785C77.5589 126.605 77.3994 126.46 77.2024 126.46H73.7001C73.6982 126.462 73.6972 126.463 73.6953 126.464Z" fill="#D5D5D1"/>
<path d="M78.8633 125.207C78.8633 125.589 79.1675 125.908 79.5678 125.978C79.5646 125.905 79.5646 125.832 79.5646 125.762C79.5614 125.607 79.5614 125.461 79.5614 125.329C79.5614 125.271 79.5614 125.213 79.5646 125.16C79.5646 125.023 79.5678 124.906 79.5678 124.809C79.571 124.719 79.5646 124.625 79.5454 124.538C79.5422 124.523 79.539 124.509 79.5358 124.491C79.5326 124.482 79.5326 124.474 79.5294 124.462C79.5294 124.456 79.5262 124.447 79.523 124.441C79.1451 124.526 78.8633 124.836 78.8633 125.207Z" fill="#D5D5D1"/>
<path d="M89.4949 124.028C89.4974 124.21 89.507 124.404 89.5189 124.601C89.5259 124.722 89.5359 124.842 89.5455 124.965C89.5599 125.138 89.5769 125.314 89.5935 125.483C89.6297 125.856 89.6704 126.205 89.7066 126.488C89.7546 126.887 89.7908 127.153 89.7908 127.153L99.3382 127.146C99.3382 127.146 99.6101 126.863 99.3408 126.488C98.9485 125.933 98.2173 125.171 97.0001 124.801C95.6649 124.393 94.8591 123.855 94.3179 123.317C94.3009 123.3 94.2843 123.284 94.2699 123.267C94.1062 123.104 93.9717 122.938 93.8491 122.778C93.8347 122.76 93.8225 122.74 93.8106 122.723C93.7482 122.637 93.6928 122.554 93.6374 122.473C93.1176 121.694 91.8526 123.815 91.8526 123.815C91.8526 123.815 90.152 122.718 89.6755 122.876C89.5215 122.929 89.4805 123.407 89.4949 124.028Z" fill="#1B141C"/>
<path d="M89.7094 126.486C89.6802 126.883 89.6837 127.152 89.6837 127.152L99.3442 127.144C99.3442 127.144 99.6142 126.861 99.3439 126.486H89.7094Z" fill="#D5D5D1"/>
<path d="M93.0979 123.394L93.3864 123.732C93.4345 123.789 93.5257 123.798 93.5863 123.754L94.2668 123.267C94.1032 123.104 93.9687 122.938 93.846 122.778C93.8316 122.76 93.8194 122.74 93.8076 122.723L93.1219 123.212C93.0594 123.256 93.0473 123.339 93.0979 123.394Z" fill="#D5D5D1"/>
<path d="M91.1094 125.206C91.1094 125.639 91.4946 125.99 91.9696 125.99C92.4445 125.99 92.8298 125.639 92.8298 125.206C92.8298 124.772 92.4445 124.421 91.9696 124.421C91.4946 124.421 91.1094 124.772 91.1094 125.206Z" fill="#D5D5D1"/>
<path d="M95.1584 80.2842L91.2734 84.5356L91.938 85.1843L96.0302 81.5449L95.1584 80.2842Z" fill="#5E2A8F"/>
<path d="M74.0314 80.334L78.349 84.1723L77.5724 84.9052L73.168 81.5909L74.0314 80.334Z" fill="#5E2A8F"/>
<path d="M95.7399 81.8018L92.2148 84.937L92.83 85.5814L95.956 82.0676L95.7399 81.8018Z" fill="#DA2727"/>
<path d="M73.4858 81.8262L77.1749 84.6021L76.8008 84.9529L72.9023 82.5091L73.4858 81.8262Z" fill="#DA2727"/>
<path d="M80.521 108.792C80.4445 109.912 79.7508 110.784 78.9713 110.74C78.1918 110.696 77.6218 109.752 77.6983 108.632C77.7748 107.512 78.4685 106.64 79.248 106.684C80.0272 106.728 80.5972 107.672 80.521 108.792Z" fill="#DA2727"/>
<path d="M88.4533 74.282C88.0434 75.1349 87.3132 75.8623 86.3973 76.2742C85.3565 76.7415 84.0851 76.7824 83.0314 76.3384C82.1283 75.9558 81.3341 75.1788 81.0234 74.3024L81.997 73.8643C82.1219 74.6179 82.772 75.3277 83.5342 75.6491C84.2932 75.9704 85.2124 75.9412 85.9618 75.6052C86.7144 75.2664 87.2908 74.6354 87.5566 73.9081L88.4533 74.282Z" fill="#5E2A8F"/>
<path d="M89.8908 87.3242C89.8684 87.517 89.8492 87.7069 89.83 87.8938C86.5153 88.4518 83.4153 88.4664 79.806 87.9698C79.7644 87.7799 79.7259 87.59 79.6875 87.3972C83.3544 87.8968 86.5217 87.8821 89.8908 87.3242Z" fill="#5E2A8F"/>
<path d="M78.8789 83.3685C79.3414 82.8454 79.7545 82.286 80.1119 81.6982" stroke="#5E2A8F" stroke-width="0.75" stroke-miterlimit="10"/>
<path d="M90.5472 84.0276C91.2236 82.9392 91.4436 81.6215 91.1528 80.3987C90.8672 79.1979 90.1133 78.0978 90.0156 76.8721" stroke="#5E2A8F" stroke-width="0.75" stroke-miterlimit="10"/>
<path d="M85.4328 68.2091C85.6331 68.2091 85.7954 67.9321 85.7954 67.5904C85.7954 67.2487 85.6331 66.9717 85.4328 66.9717C85.2326 66.9717 85.0703 67.2487 85.0703 67.5904C85.0703 67.9321 85.2326 68.2091 85.4328 68.2091Z" fill="#1B141C"/>
<path d="M88.8618 67.5904C88.8618 67.9321 88.6994 68.2091 88.4992 68.2091C88.2991 68.2091 88.1367 67.9321 88.1367 67.5904C88.1367 67.2486 88.2991 66.9717 88.4992 66.9717C88.6997 66.9717 88.8618 67.2486 88.8618 67.5904Z" fill="#1B141C"/>
<path d="M86.9693 67.6123C86.9482 67.7952 86.993 67.9789 87.0465 68.1562C87.1003 68.3335 87.1637 68.51 87.1813 68.6934C87.1989 68.8766 87.1656 69.0717 87.0433 69.2177C86.9206 69.3638 86.6952 69.4459 86.5078 69.3778" stroke="#1B141C" stroke-width="0.75" stroke-miterlimit="10" stroke-linecap="round" stroke-linejoin="round"/>
<path d="M85.4961 69.9199C85.4961 70.5261 86.0348 71.0174 86.6993 71.0174C87.3638 71.0174 87.9025 70.5261 87.9025 69.9199H85.4961Z" fill="white"/>
<path d="M129.06 65.9535C129.325 66.8006 129.638 67.6504 129.931 68.48C129.942 68.5115 129.952 68.5434 129.963 68.5752L135.415 66.4402C136.107 66.17 136.487 65.4654 136.274 64.788C136.043 64.0539 135.203 63.6295 134.398 63.8401L128.953 65.2647C128.989 65.494 129.026 65.7236 129.06 65.9535Z" fill="#B7502D"/>
<path d="M133.012 64.2009C133.012 64.2009 132.325 65.3906 132.763 67.1103L134.291 66.8646V63.8281L133.012 64.2009Z" fill="#801400"/>
<path d="M143.76 90.8502H130.262V76.5412C130.262 75.3561 131.124 74.315 132.373 73.9908L136.809 72.8398L141.605 74.0121C142.876 74.3226 143.76 75.3733 143.76 76.5733V90.8502H143.76Z" fill="#B7502D"/>
<path d="M126.79 70.1519L132.477 67.7016L131.211 64.2705L119.256 67.6347C118.992 67.7089 118.755 67.8141 118.545 67.9429C118.823 69.2165 118.819 70.555 118.324 71.7658C118.407 71.8297 118.492 71.8925 118.587 71.9492L130.143 78.8562L133.363 73.6844C133.363 73.6844 128.448 70.656 126.79 70.1519Z" fill="#FFB74A"/>
<path d="M118.552 67.9434C117.149 68.8027 116.977 70.7275 118.331 71.7662C118.825 70.5554 118.829 69.2173 118.552 67.9434Z" fill="#FF9838"/>
<path d="M129.98 64.412L131.743 68.1622L133.108 67.8105L131.716 63.9248L129.98 64.412Z" fill="#FF9838"/>
<path d="M139.119 70.541H134.91V75.7172H139.119V70.541Z" fill="#B7502D"/>
<path d="M139.119 70.585V72.2734C138.668 72.4235 138.174 72.4986 137.709 72.5278C137.072 72.569 136.435 72.5255 135.802 72.4577C135.502 72.4261 135.197 72.3511 134.91 72.2421V70.5853L139.119 70.585Z" fill="#801400"/>
<path d="M142.097 99.6454H131.923C130.532 99.6454 129.453 98.3098 129.613 96.7885L130.261 90.6592H143.759L144.406 96.7885C144.567 98.3098 143.487 99.6454 142.097 99.6454Z" fill="#B7502D"/>
<path d="M128.413 112.772L128.281 125.053C128.273 125.795 128.865 126.449 129.692 126.563C130.597 126.687 131.442 126.118 131.578 125.293L133.636 112.853C131.89 112.88 130.149 112.866 128.413 112.772Z" fill="#B7502D"/>
<path d="M140.293 112.707C140.998 116.9 141.69 121.096 142.423 125.292C142.546 125.999 143.218 126.539 144.027 126.536C144.921 126.534 145.643 125.871 145.641 125.055C145.626 120.915 145.573 116.776 145.531 112.634C143.787 112.683 142.039 112.69 140.293 112.707Z" fill="#B7502D"/>
<path d="M158.237 81.9836L161.314 78.8338C161.787 78.3509 161.816 77.6125 161.351 77.0972C160.837 76.5284 159.915 76.4472 159.291 76.9161L155.898 79.4662C156.624 80.3387 157.428 81.1566 158.237 81.9836Z" fill="#B7502D"/>
<path d="M142.434 66.8145C142.248 66.5893 141.938 66.4207 141.598 66.3979C141.258 66.3752 140.898 66.5142 140.749 66.7561L140.621 68.3013C140.744 68.5616 141.097 68.7319 141.45 68.7331C141.802 68.7342 142.139 68.5818 142.354 68.3621C142.57 68.1421 142.67 67.862 142.681 67.5845C142.693 67.3157 142.62 67.0397 142.434 66.8145Z" fill="#B7502D"/>
<path d="M141.56 68.2472C141.291 67.7907 141.33 67.2424 141.663 66.8086" stroke="#801400" stroke-width="0.5683" stroke-miterlimit="10" stroke-linecap="round" stroke-linejoin="round"/>
<path d="M141.461 67.4346C141.744 67.5482 141.964 67.7442 142.061 67.9697" stroke="#801400" stroke-width="0.5683" stroke-miterlimit="10" stroke-linecap="round" stroke-linejoin="round"/>
<path d="M131.709 66.8145C131.896 66.5893 132.205 66.4207 132.545 66.3979C132.885 66.3752 133.245 66.5142 133.394 66.7561L133.522 68.3013C133.4 68.5616 133.046 68.7319 132.694 68.7331C132.341 68.7342 132.004 68.5818 131.789 68.3621C131.574 68.1421 131.474 67.862 131.462 67.5845C131.451 67.3157 131.523 67.0397 131.709 66.8145Z" fill="#B7502D"/>
<path d="M132.583 68.2472C132.852 67.7907 132.813 67.2424 132.48 66.8086" stroke="#801400" stroke-width="0.5683" stroke-miterlimit="10" stroke-linecap="round" stroke-linejoin="round"/>
<path d="M132.686 67.4346C132.403 67.5482 132.183 67.7442 132.086 67.9697" stroke="#801400" stroke-width="0.5683" stroke-miterlimit="10" stroke-linecap="round" stroke-linejoin="round"/>
<path d="M141.293 66.7261C141.293 64.1979 139.401 62.1484 137.067 62.1484C134.732 62.1484 132.84 64.1979 132.84 66.7261C132.84 66.991 132.865 67.249 132.905 67.5017V68.6342C132.905 69.6744 133.467 70.674 134.401 71.2722C134.82 71.5404 135.338 71.7273 135.845 71.7834C136.453 71.8509 137.067 71.8938 137.679 71.8529C138.339 71.8091 139.052 71.6704 139.619 71.3429C140.138 71.0429 140.565 70.5983 140.844 70.0994C140.873 70.048 140.9 69.9957 140.926 69.9428C140.996 69.7985 141.055 69.6495 141.101 69.4974C141.186 69.2163 141.228 68.9251 141.228 68.6339V67.5014C141.268 67.249 141.293 66.991 141.293 66.7261Z" fill="#B7502D"/>
<path d="M138.3 63.6598C138.815 63.9309 139.362 63.9463 139.522 63.694C139.682 63.4416 139.394 63.0174 138.879 62.7461C138.364 62.475 137.817 62.4595 137.657 62.7119C137.498 62.9643 137.786 63.3884 138.3 63.6598Z" fill="#B75E40"/>
<path d="M132.296 127.111V127.118H125.93V126.594C125.93 126.529 125.932 126.463 125.937 126.398C125.955 126.105 126.019 125.818 126.126 125.545C126.257 125.212 126.451 124.9 126.699 124.62L128.298 122.821C128.298 122.358 128.709 121.982 129.218 121.982H130.6C130.986 121.982 131.328 122.199 131.461 122.528L132.148 123.973C132.189 124.061 132.222 124.152 132.243 124.243C132.245 124.254 132.248 124.264 132.25 124.275C132.255 124.292 132.258 124.308 132.26 124.324C132.281 124.42 132.289 124.52 132.286 124.62C132.284 124.723 132.281 124.851 132.281 124.998C132.278 125.056 132.278 125.116 132.278 125.182C132.278 125.324 132.278 125.48 132.281 125.65C132.281 125.876 132.284 126.127 132.289 126.398C132.293 126.624 132.296 126.862 132.296 127.111Z" fill="#1B141C"/>
<path d="M127.934 126.599V127.121L132.302 127.116C132.302 126.867 132.301 126.629 132.297 126.403H127.939C127.936 126.469 127.934 126.534 127.934 126.599Z" fill="#A8A8A5"/>
<path d="M128.949 123.616H130.435C130.657 123.616 130.837 123.452 130.837 123.249C130.837 123.046 130.657 122.882 130.435 122.882H128.949C128.727 122.882 128.547 123.046 128.547 123.249C128.547 123.452 128.727 123.616 128.949 123.616Z" fill="#D5D5D1"/>
<path d="M128.271 124.196H130.175C130.282 124.196 130.368 124.118 130.368 124.021C130.368 123.923 130.282 123.845 130.175 123.845H128.271C128.164 123.845 128.078 123.924 128.078 124.021C128.078 124.118 128.164 124.196 128.271 124.196Z" fill="#D5D5D1"/>
<path d="M127.915 124.8H129.82C129.926 124.8 130.013 124.721 130.013 124.624C130.013 124.527 129.926 124.448 129.82 124.448H127.915C127.809 124.448 127.723 124.527 127.723 124.624C127.723 124.721 127.809 124.8 127.915 124.8Z" fill="#D5D5D1"/>
<path d="M125.93 126.408V127.121L129.724 127.117C129.938 127.117 130.112 126.958 130.111 126.762C130.111 126.76 130.111 126.758 130.111 126.755C130.109 126.561 129.937 126.403 129.723 126.403H125.934C125.933 126.405 125.932 126.406 125.93 126.408Z" fill="#D5D5D1"/>
<path d="M132.28 124.618C132.278 124.721 132.275 124.849 132.275 124.996C132.273 125.054 132.273 125.115 132.273 125.18C132.229 125.22 132.186 125.261 132.147 125.306C131.846 125.641 131.685 126.075 131.685 126.485L130.676 126.431C130.75 125.804 131.057 125.22 131.534 124.791C131.744 124.602 131.986 124.441 132.255 124.322C132.275 124.418 132.283 124.518 132.28 124.618Z" fill="#A8A8A5"/>
<path d="M141.973 127.111V127.118H148.339V126.594C148.339 126.529 148.336 126.463 148.331 126.398C148.313 126.105 148.25 125.818 148.142 125.545C148.012 125.212 147.818 124.9 147.57 124.62L145.971 122.821C145.971 122.358 145.56 121.982 145.051 121.982H143.669C143.283 121.982 142.941 122.199 142.808 122.528L142.121 123.973C142.08 124.061 142.047 124.152 142.026 124.243C142.024 124.254 142.021 124.264 142.018 124.275C142.013 124.292 142.011 124.308 142.008 124.324C141.988 124.42 141.98 124.52 141.983 124.62C141.985 124.723 141.988 124.851 141.988 124.998C141.99 125.056 141.99 125.116 141.99 125.182C141.99 125.324 141.99 125.48 141.988 125.65C141.988 125.876 141.985 126.127 141.98 126.398C141.975 126.624 141.973 126.862 141.973 127.111Z" fill="#1B141C"/>
<path d="M146.341 126.599V127.121L141.973 127.116C141.973 126.867 141.974 126.629 141.978 126.403H146.336C146.339 126.469 146.341 126.534 146.341 126.599Z" fill="#A8A8A5"/>
<path d="M145.314 123.616H143.828C143.606 123.616 143.426 123.452 143.426 123.249C143.426 123.046 143.606 122.882 143.828 122.882H145.314C145.536 122.882 145.716 123.046 145.716 123.249C145.716 123.452 145.536 123.616 145.314 123.616Z" fill="#D5D5D1"/>
<path d="M145.992 124.196H144.087C143.981 124.196 143.895 124.118 143.895 124.021C143.895 123.923 143.981 123.845 144.087 123.845H145.992C146.098 123.845 146.185 123.924 146.185 124.021C146.185 124.118 146.099 124.196 145.992 124.196Z" fill="#D5D5D1"/>
<path d="M146.343 124.8H144.439C144.333 124.8 144.246 124.721 144.246 124.624C144.246 124.527 144.333 124.448 144.439 124.448H146.343C146.45 124.448 146.536 124.527 146.536 124.624C146.536 124.721 146.45 124.8 146.343 124.8Z" fill="#D5D5D1"/>
<path d="M148.334 126.408V127.121L144.539 127.117C144.325 127.117 144.151 126.958 144.152 126.762C144.152 126.76 144.152 126.758 144.152 126.755C144.154 126.561 144.326 126.403 144.54 126.403H148.328C148.33 126.405 148.332 126.406 148.334 126.408Z" fill="#D5D5D1"/>
<path d="M141.989 124.618C141.991 124.721 141.994 124.849 141.994 124.996C141.996 125.054 141.996 125.115 141.996 125.18C142.04 125.22 142.083 125.261 142.122 125.306C142.423 125.641 142.584 126.075 142.584 126.485L143.593 126.431C143.519 125.804 143.212 125.22 142.735 124.791C142.526 124.602 142.283 124.441 142.014 124.322C141.994 124.418 141.986 124.518 141.989 124.618Z" fill="#A8A8A5"/>
<path d="M159.817 80.2652C159.817 80.2652 163.075 77.7008 163.908 77.17C164.742 76.6393 165.322 76.107 165.423 75.8824C165.524 75.6581 164.687 75.6487 163.495 76.457C163.495 76.457 164.894 75.3829 165.203 74.6141C165.512 73.8452 163.514 75.307 162.937 75.8815C162.937 75.8815 164.443 74.3713 164.664 73.5438C164.885 72.7162 162.846 74.5034 162.19 75.3376C162.19 75.3376 163.385 73.5657 163.379 72.9593C163.374 72.3531 161.88 74.1914 161.385 75.0096C160.891 75.8278 160.448 75.8488 160.418 75.6589C160.389 75.4691 160.377 74.7236 160.425 74.3415C160.454 74.1026 160.205 73.4818 159.946 73.7553C159.791 73.9194 159.664 74.5533 159.6 74.9345C159.43 75.9511 158.926 77.6424 158.425 78.2625C157.924 78.8827 157.695 79.1117 157.695 79.1117L159.817 80.2652Z" fill="#B7502D"/>
<path d="M143.908 90.6592H130.106L129.129 97.6964C129.129 97.6964 127.857 109.423 128.071 116.206L133.309 116.611L136.503 99.972L137.844 99.7882L140.575 116.63L146.021 116.089C146.02 116.082 146.03 103.094 145.037 97.2921L143.908 90.6592Z" fill="#556BC1"/>
<path d="M127.688 115.686L133.576 116.409L133.397 117.455L127.688 117.133V115.686Z" fill="#3A4882"/>
<path d="M146.181 115.686L140.293 116.409L140.472 117.455L146.181 117.133V115.686Z" fill="#3A4882"/>
<path d="M135.538 99.875L132.297 116.533" stroke="#3A4882" stroke-width="0.75" stroke-miterlimit="10"/>
<path d="M138.695 99.6465L141.564 116.533" stroke="#3A4882" stroke-width="0.75" stroke-miterlimit="10"/>
<path d="M128.365 117.171L132.879 117.425L132.694 118.541L128.359 117.692L128.365 117.171Z" fill="#801400"/>
<path d="M145.578 117.171L141.082 117.421L141.27 118.541L145.584 117.691L145.578 117.171Z" fill="#801400"/>
<path d="M141.395 66.2553C141.28 66.0844 141.223 66.1522 141.072 66.2973C140.92 66.4425 140.87 66.6493 140.795 66.8377C140.538 67.4786 139.928 68.8486 139.243 69.1241C138.61 69.3788 137.903 69.5 137.209 69.5409C136.514 69.5 135.807 69.3788 135.174 69.1241C134.489 68.8486 133.88 67.4786 133.623 66.8377C133.547 66.6493 133.497 66.4425 133.346 66.2973C133.194 66.1522 133.075 66.0844 132.96 66.2553C132.917 66.8722 132.952 67.4962 132.935 68.107C132.919 68.7178 132.906 69.3362 133.059 69.9312C133.212 70.5262 133.549 71.1043 134.103 71.4475C134.418 71.6424 134.783 71.7499 135.16 71.8077C135.967 72.063 137.279 72.2789 138.929 71.8463C139.42 71.8054 139.909 71.6985 140.314 71.4475C140.868 71.1043 141.205 70.5262 141.358 69.9312C141.511 69.3362 141.498 68.7178 141.482 68.107C141.466 67.4959 141.465 66.8877 141.395 66.2553Z" fill="#1B141C"/>
<path d="M129.816 96.1313C130.782 96.0568 131.709 95.6277 132.345 94.9608C132.981 94.2939 133.319 93.3971 133.267 92.5146" stroke="#3A4882" stroke-width="0.75" stroke-miterlimit="10"/>
<path d="M144.608 96.1313C143.642 96.0568 142.715 95.6277 142.079 94.9608C141.443 94.2939 141.105 93.3971 141.158 92.5146" stroke="#3A4882" stroke-width="0.75" stroke-miterlimit="10"/>
<path d="M137.355 92.5146V98.2622" stroke="#3A4882" stroke-width="0.75" stroke-miterlimit="10"/>
<path d="M137.352 97.0301C136.665 97.0301 136.099 96.5393 136.064 95.9139L135.875 92.5146" stroke="#3A4882" stroke-width="0.75" stroke-miterlimit="10"/>
<path d="M145.016 94.3225C144.585 88.5355 144.084 81.843 143.83 76.0828C143.789 75.1522 143.119 74.3442 142.148 74.055L139.836 73.3662C139.681 74.147 139.099 74.936 138.316 75.2827C137.534 75.6295 136.57 75.614 135.802 75.2421C135.033 74.8703 134.478 74.1517 134.353 73.3662L129.968 74.7853C129.544 81.1209 129.051 88.0465 129.055 94.3941C130.289 94.9263 131.544 95.0335 132.922 95.1454C136.913 95.4696 141.111 95.1404 145.016 94.3225Z" fill="#FFB74A"/>
<path d="M160.03 80.4256L157.312 78.1238L151.1 82.601C149.837 80.8124 146.651 77.539 144.74 75.6266C143.766 74.6515 142.498 73.9645 141.094 73.649L139.836 73.3662L143.224 83.284L148.638 88.2399C149.661 87.5403 151.416 87.6373 152.772 88.1175C152.776 88.1131 152.781 88.1093 152.785 88.1049L160.03 80.4256Z" fill="#FFB74A"/>
<path d="M148.637 88.2401L148.64 88.243C149.797 89.3025 151.695 89.2426 152.771 88.1174C151.415 87.6374 149.66 87.5404 148.637 88.2401Z" fill="#FF9838"/>
<path d="M157.189 77.752L160.409 80.4367L159.465 81.4948L156.219 78.6706L157.189 77.752Z" fill="#FF9838"/>
<path d="M157.66 78.1416L160.035 80.1212L160.544 79.7038L157.937 77.9336L157.66 78.1416Z" fill="#801400"/>
<path d="M140.81 73.6564C140.548 74.6466 139.792 75.6164 138.799 76.0575C137.739 76.5249 136.439 76.5045 135.398 76.002C134.418 75.5288 133.694 74.6379 133.477 73.6505L134.354 73.3672C134.479 74.15 135.033 74.8716 135.802 75.2425C136.57 75.6135 137.534 75.6281 138.316 75.2834C139.097 74.9358 139.68 74.1471 139.837 73.3672L140.81 73.6564Z" fill="#FF9838"/>
<path d="M145.016 94.3221C141.112 95.14 136.914 95.4672 132.923 95.143C131.543 95.032 130.291 94.9239 129.055 94.3922C129.055 94.1001 129.055 93.808 129.058 93.513C130.115 93.7993 131.2 93.8898 132.36 93.9862C136.501 94.3221 140.84 94.0388 144.939 93.2793C144.965 93.6298 144.991 93.9774 145.016 94.3221Z" fill="#FF9838"/>
<path d="M131.805 90.0879C134.583 91.8864 138.005 92.8428 141.411 92.7724" stroke="#FF9838" stroke-width="0.75" stroke-miterlimit="10"/>
<path d="M135.645 89.8086C136.904 90.8914 138.401 91.7438 140.021 92.3006" stroke="#FF9838" stroke-width="0.75" stroke-miterlimit="10"/>
<path d="M144.24 84.3161C144.135 82.732 143.914 81.1546 143.578 79.5977" stroke="#FF9838" stroke-width="0.75" stroke-miterlimit="10"/>
<path d="M129.613 78.5516C130.506 78.3618 131.359 78.0197 132.116 77.5488" stroke="#FF9838" stroke-width="0.75" stroke-miterlimit="10"/>
<path d="M151.055 82.6152C150.908 83.387 150.695 84.1485 150.418 84.8902" stroke="#FF9838" stroke-width="0.75" stroke-miterlimit="10"/>
<path d="M126.598 70.1362C125.447 70.0427 124.296 69.9489 123.145 69.8555" stroke="#FF9838" stroke-width="0.75" stroke-miterlimit="10"/>
<path d="M131.794 106.946C131.65 108.156 130.897 109.073 130.114 108.995C129.331 108.917 128.813 107.873 128.958 106.664C129.103 105.454 129.855 104.537 130.638 104.615C131.422 104.693 131.939 105.737 131.794 106.946Z" fill="#3A4882"/>
<path d="M142.356 106.946C142.501 108.156 143.253 109.073 144.037 108.995C144.82 108.917 145.338 107.873 145.193 106.664C145.048 105.454 144.296 104.537 143.512 104.615C142.729 104.693 142.211 105.737 142.356 106.946Z" fill="#3A4882"/>
<path d="M136.008 69.6914C136.008 70.2975 136.546 70.7889 137.211 70.7889C137.876 70.7889 138.414 70.2975 138.414 69.6914H136.008Z" fill="white"/>
<path d="M135.273 67.21C135.473 67.21 135.635 66.933 135.635 66.5913C135.635 66.2497 135.473 65.9727 135.273 65.9727C135.072 65.9727 134.91 66.2497 134.91 66.5913C134.91 66.933 135.072 67.21 135.273 67.21Z" fill="#1B141C"/>
<path d="M139.256 66.5913C139.256 66.9331 139.094 67.21 138.894 67.21C138.694 67.21 138.531 66.9331 138.531 66.5913C138.531 66.2496 138.694 65.9727 138.894 65.9727C139.094 65.9727 139.256 66.2496 139.256 66.5913Z" fill="#1B141C"/>
<path d="M137.077 66.5508C136.943 67.0433 136.808 67.5361 136.674 68.0286C136.624 68.2097 136.577 68.4104 136.672 68.5757C136.801 68.8009 137.126 68.8529 137.405 68.8535" stroke="#1B141C" stroke-width="0.75" stroke-miterlimit="10" stroke-linecap="round" stroke-linejoin="round"/>
<path d="M187.828 93.4759C186.737 92.2911 185.711 91.035 184.908 89.6816L184.406 90.1549L182.128 92.3361C181.643 92.8023 181.164 93.2743 180.684 93.7449L168.735 91.0186C168.187 90.893 167.606 91.1475 167.38 91.6367C167.131 92.1769 167.41 92.7988 168.002 93.0257L180.253 97.7217C181.058 97.0557 182.069 96.9689 183.112 97.3034C183.888 96.6847 184.664 96.0654 185.432 95.4389L187.828 93.4759Z" fill="#FF5754"/>
<path d="M180.25 97.7219L180.71 97.8983C181.372 98.1504 182.163 98.0587 182.739 97.5995L182.95 97.4316C183.003 97.3892 183.056 97.346 183.109 97.3033C182.066 96.9691 181.055 97.0559 180.25 97.7219Z" fill="#DA2727"/>
<path d="M189.415 85.3154L183.918 90.392L187.3 94.1497L189.66 92.4573L191.878 86.0679L190.458 85.085L189.415 85.3154Z" fill="#3A4882"/>
<path d="M190.221 76.3928C190.221 76.3928 189.129 82.1199 190.891 85.7686L193.624 84.6954L194.404 81.5541L193.58 76.2578L190.221 76.3928Z" fill="#1B141C"/>
<path d="M198.641 73.8877C199.429 74.8595 199.87 76.0385 200.073 77.2332C200.277 78.428 200.254 79.6446 200.189 80.8522C200.04 83.6083 199.396 86.2817 198.481 88.9425C197.722 88.1322 197.499 87.5442 197.1 86.5422C196.645 85.3963 196.723 84.1408 196.747 82.9218C196.778 81.3765 196.712 79.8237 196.937 78.2918C197.161 76.76 197.543 75.0649 198.641 73.8877Z" fill="#1B141C"/>
<path d="M196.803 81.2217H192.594V86.3979H196.803V81.2217Z" fill="#FF5754"/>
<path d="M192.594 81.2217V82.8227C193.552 82.859 195.751 82.7669 196.646 81.229L196.03 81.2217H192.594Z" fill="#DA2727"/>
<path d="M190.469 77.5557C190.469 75.0193 192.329 72.9629 194.623 72.9629C196.917 72.9629 198.777 75.0191 198.777 77.5557C198.777 78.3488 198.594 79.1442 198.216 79.8602C197.877 80.5037 197.379 81.0847 196.74 81.503C196.343 81.763 195.878 81.9622 195.4 82.0551C195.082 82.1168 194.739 82.1036 194.415 82.1077C194.06 82.1121 193.704 82.108 193.349 82.0951C192.937 82.0802 192.5 82.0615 192.106 81.9386C191.757 81.8296 191.436 81.6365 191.185 81.3903C190.753 80.9664 190.516 80.3986 190.516 79.8211V78.2074C190.488 77.9939 190.469 77.7775 190.469 77.5557Z" fill="#FF5754"/>
<path d="M197.851 77.5236C198 77.2818 198.36 77.1427 198.7 77.1655C199.04 77.1883 199.349 77.3568 199.536 77.5821C199.722 77.8073 199.794 78.0833 199.783 78.3521C199.771 78.6296 199.671 78.9097 199.456 79.1297C199.241 79.3496 198.903 79.5018 198.551 79.5009C198.199 79.5001 197.845 79.3295 197.723 79.0692L197.851 77.5236Z" fill="#FF5754"/>
<path d="M198.654 79.0158C198.385 78.5592 198.424 78.0109 198.757 77.5771" stroke="#DA2727" stroke-width="0.5683" stroke-miterlimit="10" stroke-linecap="round" stroke-linejoin="round"/>
<path d="M198.559 78.2041C198.842 78.3177 199.061 78.5137 199.159 78.7392" stroke="#DA2727" stroke-width="0.5683" stroke-miterlimit="10" stroke-linecap="round" stroke-linejoin="round"/>
<path d="M172.598 115.626C172.276 115.502 171.931 115.374 171.575 115.239L168.932 123.756C168.731 124.401 169.071 125.101 169.761 125.387C170.521 125.703 171.418 125.397 171.764 124.704L175.672 116.878C174.624 116.46 173.616 116.017 172.598 115.626Z" fill="#FF5754"/>
<path d="M190.246 109.811L189.799 102.399L179.948 104.841L176.083 105.664C174.841 105.929 173.858 106.793 173.521 107.915L170.352 118.469L174.446 119.839L179.502 110.172L181.45 111.271L190.246 109.811Z" fill="#5E2A8F"/>
<path d="M173.91 119.198L177.83 111.794" stroke="#451F69" stroke-width="0.75" stroke-miterlimit="10"/>
<path d="M177.508 110.335C177.697 109.64 177.891 108.943 178.07 108.244L170.873 108.088C170.141 108.072 169.484 108.543 169.349 109.221C169.2 109.971 169.745 110.689 170.567 110.825L177.071 111.901C177.223 111.382 177.365 110.858 177.508 110.335Z" fill="#FF5754"/>
<path d="M199.08 85.2388L194.711 83.4531L191.169 84.8126C191.181 84.9464 191.185 85.0822 191.18 85.2207C191.18 86.2729 190.679 87.3668 189.866 88.1126C189.42 88.5221 188.924 88.8794 188.43 89.239L190.213 101.464H198.796L200.65 88.7535C200.878 87.1901 200.252 85.7179 199.08 85.2388Z" fill="#FF5754"/>
<path d="M189.66 97.6589L189.701 97.9413C189.701 97.9413 193.471 99.2187 199.267 98.251L199.427 97.2931L190.801 97.1523L189.66 97.6589Z" fill="#DA2727"/>
<path d="M170.677 93.73C170.677 93.73 166.877 93.0021 165.965 92.915C165.052 92.828 164.34 92.6384 164.152 92.5014C163.965 92.3644 164.621 92.0238 165.95 92.1877C165.95 92.1877 164.33 91.8967 163.718 91.4121C163.107 90.9278 165.384 91.2865 166.115 91.5105C166.115 91.5105 164.202 90.9179 163.632 90.3523C163.061 89.7868 165.526 90.3859 166.444 90.7838C166.444 90.7838 164.652 89.8598 164.367 89.379C164.081 88.8979 166.141 89.755 166.923 90.2042C167.705 90.6535 168.065 90.4937 167.997 90.3319C167.93 90.17 167.582 89.5768 167.362 89.2937C167.224 89.117 167.124 88.5272 167.459 88.6403C167.66 88.708 168.064 89.1579 168.297 89.4336C168.918 90.1689 170.125 91.304 170.818 91.5941C171.511 91.8841 171.801 91.9741 171.801 91.9741L170.677 93.73Z" fill="#FF5754"/>
<path d="M173.055 124.016C173.052 124.198 173.043 124.392 173.031 124.589C173.023 124.71 173.014 124.83 173.004 124.953C172.99 125.126 172.973 125.302 172.956 125.471C172.92 125.844 172.879 126.193 172.843 126.476C172.795 126.875 172.759 127.141 172.759 127.141L163.211 127.134C163.211 127.134 162.939 126.851 163.209 126.476C163.601 125.921 164.333 125.16 165.55 124.789C166.885 124.381 167.691 123.844 168.232 123.306C168.249 123.288 168.266 123.273 168.28 123.255C168.444 123.093 168.578 122.926 168.701 122.766C168.715 122.748 168.727 122.729 168.739 122.711C168.802 122.625 168.857 122.542 168.913 122.461C169.432 121.682 170.697 123.804 170.697 123.804C170.697 123.804 172.398 122.707 172.874 122.865C173.028 122.917 173.069 123.396 173.055 124.016Z" fill="#1B141C"/>
<path d="M172.841 126.476C172.87 126.873 172.866 127.141 172.866 127.141L163.206 127.134C163.206 127.134 162.936 126.851 163.206 126.476H172.841Z" fill="#D5D5D1"/>
<path d="M169.447 123.383L169.158 123.721C169.11 123.778 169.018 123.787 168.958 123.743L168.277 123.256C168.441 123.094 168.576 122.927 168.698 122.767C168.713 122.749 168.725 122.729 168.737 122.712L169.422 123.201C169.485 123.245 169.497 123.328 169.447 123.383Z" fill="#D5D5D1"/>
<path d="M171.431 125.194C171.431 125.627 171.046 125.978 170.571 125.978C170.096 125.978 169.711 125.627 169.711 125.194C169.711 124.761 170.096 124.409 170.571 124.409C171.046 124.409 171.431 124.76 171.431 125.194Z" fill="#D5D5D1"/>
<path d="M171.804 107.467C171.617 107.402 171.417 107.338 171.212 107.275C171.086 107.237 170.96 107.2 170.831 107.163C170.649 107.111 170.464 107.06 170.286 107.011C169.893 106.904 169.522 106.809 169.221 106.735C168.796 106.628 168.513 106.56 168.513 106.56L164.98 114.65C164.98 114.65 165.168 114.985 165.65 114.896C166.36 114.77 167.407 114.433 168.236 113.539C169.146 112.559 169.992 112.075 170.74 111.816C170.764 111.809 170.786 111.8 170.809 111.794C171.035 111.716 171.255 111.664 171.463 111.619C171.487 111.613 171.511 111.61 171.534 111.607C171.644 111.585 171.749 111.57 171.852 111.553C172.838 111.401 171.147 109.543 171.147 109.543C171.147 109.543 172.894 108.509 172.91 108.047C172.914 107.897 172.441 107.685 171.804 107.467Z" fill="#1B141C"/>
<path d="M169.222 106.733C168.828 106.562 168.554 106.465 168.554 106.465L164.98 114.651C164.98 114.651 165.168 114.985 165.651 114.895L169.222 106.733Z" fill="#D5D5D1"/>
<path d="M171.12 110.757L170.669 110.876C170.593 110.896 170.55 110.97 170.572 111.037L170.816 111.794C171.042 111.716 171.262 111.664 171.47 111.619C171.494 111.614 171.518 111.611 171.54 111.607L171.296 110.845C171.275 110.776 171.195 110.735 171.12 110.757Z" fill="#D5D5D1"/>
<path d="M170.012 108.4C169.57 108.239 169.07 108.435 168.894 108.838C168.717 109.24 168.932 109.697 169.374 109.858C169.815 110.018 170.315 109.822 170.492 109.42C170.668 109.017 170.453 108.561 170.012 108.4Z" fill="#D5D5D1"/>
<path d="M196.516 73.1283C196.577 72.6095 196.641 72.0843 196.844 71.5965C197.047 71.1086 197.408 70.6544 197.924 70.4298C198.525 70.1686 199.264 70.2595 199.83 70.577C200.396 70.8945 200.802 71.4133 201.058 71.973C201.274 72.4459 201.393 72.9776 201.246 73.4724C201.078 74.0417 200.576 74.4898 200.006 74.767C199.435 75.0443 198.795 75.1745 198.164 75.3016" fill="#1B141C"/>
<path d="M197.759 72.559C198.042 73.4385 198.394 74.2999 198.814 75.1351C199.211 75.9276 199.674 76.7099 199.843 77.5649C200.097 78.8592 199.562 80.5371 198.528 81.4742C198.479 80.8038 198.641 79.8019 198.448 79.1522C198.256 78.5025 198.379 77.4974 197.82 77.0472C195.427 77.6586 191.765 77.6341 189.73 76.3549C189.964 75.3764 190.263 74.3765 190.924 73.5682C191.585 72.7599 192.7 72.1769 193.809 72.0247C195.081 71.8503 196.576 72.1077 197.759 72.559Z" fill="#1B141C"/>
<path d="M197.418 76.7713C198.238 78.2339 198.558 79.9261 198.321 81.5546C198.592 81.0968 198.778 80.6584 198.959 80.1647C199.139 79.6714 199.224 79.1382 199.112 78.6285C198.98 78.0303 198.589 77.5077 198.168 77.0336C198.072 76.9264 197.973 76.8192 197.845 76.7453C197.717 76.6717 197.56 76.7254 197.418 76.7713Z" fill="#1B141C"/>
<path d="M200.972 88.646C200.866 91.8096 200.315 94.4912 199.675 97.5992C196.235 98.312 192.818 98.2915 189.286 97.5846C189.161 96.3198 188.857 94.6869 188.274 93.536C187.829 92.6509 187.179 91.8125 187.076 90.8427C186.985 89.9906 187.363 89.1785 187.762 88.429C187.972 88.0355 188.194 87.6479 188.388 87.2474C188.665 86.6734 188.717 85.9741 189.198 85.4956C189.699 84.9976 190.45 84.8109 191.137 84.6269C191.356 84.5682 191.577 84.5159 191.8 84.4715C191.72 84.9564 191.877 85.4559 192.143 85.8853C192.409 86.3147 192.777 86.6798 193.152 87.0333C193.847 86.8639 194.516 86.6097 195.141 86.2796C196.053 85.8006 196.867 85.1638 197.514 84.4043C198.625 84.7665 199.848 85.193 200.47 86.1044C200.768 86.5396 200.902 87.0421 200.953 87.562C200.988 87.9216 200.985 88.2867 200.972 88.646Z" fill="#556BC1"/>
<path d="M186.887 113.87L188.256 114.109C188.959 114.231 189.685 114.08 190.26 113.692L190.953 113.223L191.03 113.175C189.664 112.755 188.173 112.936 186.887 113.87Z" fill="#5E2A8F"/>
<path d="M200.125 102.724L199.069 99.5616C193.682 100.993 189.769 99.5 189.769 99.5L188.37 104.679C188.165 105.437 188.411 106.237 189.019 106.786L187.569 108.334L176.125 108.008L175.32 111.853L186.878 113.87C188.164 112.936 189.655 112.755 191.021 113.175L197.763 108.916C199.942 107.539 200.897 105.036 200.125 102.724Z" fill="#9843E7"/>
<path d="M170.02 118.436L174.562 120.06L175.51 118.805L170.288 116.815L170.02 118.436Z" fill="#451F69"/>
<path d="M176.038 107.497L175.305 111.891L176.883 112.459L177.829 107.369L176.038 107.497Z" fill="#451F69"/>
<path d="M175.916 108.198L175.351 111.619L174.23 111.433L175.263 108.184L175.916 108.198Z" fill="#DA2727"/>
<path d="M170.532 118.617L174.16 119.915L173.89 120.455L170.176 119.764L170.532 118.617Z" fill="#DA2727"/>
<path d="M176.949 108.657L187.703 109.13L189.657 107.181" stroke="#451F69" stroke-width="0.75" stroke-miterlimit="10"/>
<path d="M188.858 102.886L188.354 104.715C188.174 105.37 188.351 106.064 188.831 106.579L189.023 106.785" stroke="#451F69" stroke-width="0.75" stroke-miterlimit="10"/>
<path d="M194.699 97.0117L193.856 97.6114C193.824 97.8524 193.792 98.0934 193.762 98.3344L194.699 97.0117Z" fill="#FF5754"/>
<path d="M198.506 85.1472C197.057 84.9284 195.688 85.8226 195.449 87.1441C195.28 88.0721 195.124 89.0019 194.972 89.9326C194.83 90.8647 194.675 91.7948 194.545 92.7289L194.144 95.5294C194.041 96.2217 193.949 96.9158 193.858 97.6104L194.701 97.0107L193.764 98.3337C193.795 98.0927 193.827 97.8517 193.858 97.6107L182.194 105.911C181.741 106.232 181.607 106.818 181.906 107.282C182.23 107.788 182.942 107.957 183.496 107.661L196.827 100.541C196.932 99.4974 197.392 98.5413 198.327 98.2197C198.491 97.571 198.653 96.9216 198.805 96.2708L199.466 93.5115C199.691 92.5925 199.89 91.6692 200.102 90.7481C200.304 89.8256 200.502 88.9023 200.688 87.9769C200.69 87.9675 200.694 87.9456 200.696 87.936C200.935 86.6148 199.955 85.366 198.506 85.1472Z" fill="#FF5754"/>
<path d="M196.82 100.541L197.179 100.35C197.603 100.121 197.934 99.7378 198.055 99.2655L198.116 99.0265C198.185 98.7578 198.252 98.4888 198.32 98.2197C197.386 98.541 196.926 99.4974 196.82 100.541Z" fill="#DA2727"/>
<path d="M193.164 107.713H183.387V108.317H193.827C193.827 107.984 193.53 107.713 193.164 107.713Z" fill="#A8A8A8"/>
<path d="M185.904 107.994L183.323 100.522C183.273 100.376 183.124 100.276 182.956 100.276H171.63C171.523 100.276 171.43 100.317 171.361 100.379L171.361 100.377L170.992 100.734H171.263L173.771 107.994H185.904V107.994Z" fill="#A8A8A8"/>
<path d="M185.141 108.317H173.667C173.53 108.317 173.408 108.236 173.367 108.117L170.928 101.056C170.85 100.83 171.035 100.6 171.295 100.6H182.621C182.789 100.6 182.938 100.699 182.988 100.845L185.441 107.945C185.505 108.129 185.353 108.317 185.141 108.317Z" fill="#CCCCCC"/>
<path d="M200.958 87.5591V87.562L200.096 91.894L194.508 91.006L195.142 86.2826L195.145 86.2797C196.058 85.8006 196.871 85.1638 197.518 84.4043C198.629 84.7665 199.853 85.193 200.474 86.1044C200.772 86.5396 200.906 87.0421 200.958 87.5591Z" fill="#3A4882"/>
<path d="M198.23 84.6438C197.452 85.4997 196.501 86.2212 195.444 86.7762L195.441 86.7792C194.656 87.191 193.811 87.5124 192.93 87.7285C192.456 87.2816 191.992 86.8201 191.656 86.2767C191.342 85.7685 191.15 85.1872 191.21 84.6117C191.409 84.5562 191.611 84.5124 191.809 84.4715C191.729 84.9564 191.886 85.4559 192.152 85.8853C192.418 86.3147 192.786 86.6798 193.161 87.0333C193.856 86.8639 194.525 86.6097 195.146 86.2826L195.15 86.2797C196.062 85.8006 196.876 85.1638 197.523 84.4043C197.756 84.4802 197.993 84.5591 198.23 84.6438Z" fill="#3A4882"/>
<path d="M191.639 78.2964C191.639 78.6382 191.477 78.9151 191.277 78.9151C191.076 78.9151 190.914 78.6382 190.914 78.2964C190.914 77.9546 191.076 77.6777 191.277 77.6777C191.477 77.6777 191.639 77.9546 191.639 78.2964Z" fill="#1B141C"/>
<path d="M194.347 78.9151C194.547 78.9151 194.709 78.6381 194.709 78.2964C194.709 77.9547 194.547 77.6777 194.347 77.6777C194.147 77.6777 193.984 77.9547 193.984 78.2964C193.984 78.6381 194.147 78.9151 194.347 78.9151Z" fill="#1B141C"/>
<path d="M192.676 78.5117C192.606 78.7261 192.473 78.9181 192.367 79.1196C192.26 79.3212 192.177 79.5452 192.217 79.7657C192.258 79.9863 192.455 80.196 192.7 80.1995" stroke="#1B141C" stroke-width="0.75" stroke-miterlimit="10" stroke-linecap="round" stroke-linejoin="round"/>
<path d="M192.031 80.9828C192.505 81.0775 193.02 80.9814 193.414 80.7246" stroke="#1B141C" stroke-width="0.75" stroke-miterlimit="10" stroke-linecap="round" stroke-linejoin="round"/>
</svg>
